<svg width="300" height="208" viewBox="0 0 300 208" fill="none" xmlns="http://www.w3.org/2000/svg">
<g clip-path="url(#clip0)">
<path d="M40.3117 149.608L36.4538 143.375C37.7002 140.137 39.1283 136.971 40.7313 133.894L43.2642 136.026L41.2889 132.834C43.3088 129.048 44.8861 126.67 44.8861 126.67C44.8861 126.67 52.6184 139.414 55.0181 152.792L49.7496 160.585L55.4981 156.13C55.6683 157.687 55.7405 159.252 55.7142 160.817C55.3966 176.597 49.9856 189.285 43.6283 189.157C37.2711 189.029 32.375 176.133 32.6926 160.354C32.7911 155.462 34.0008 150.366 35.6227 145.663L40.3117 149.608Z" fill="#E6E6E6"/>
<path d="M22.8548 156.567L16.33 153.225C15.7232 149.809 15.3097 146.361 15.0912 142.898L18.3612 143.414L15.0205 141.702C14.7929 137.418 14.9135 134.566 14.9135 134.566C14.9135 134.566 28.1205 141.479 37.0895 151.691L36.6081 161.086L39.2263 154.301C40.1763 155.545 41.0472 156.847 41.8338 158.201C49.7184 171.873 51.6448 185.532 46.1366 188.708C40.6283 191.885 29.7713 183.376 21.8867 169.704C19.4424 165.466 17.844 160.478 16.8012 155.613L22.8548 156.567Z" fill="#E6E6E6"/>
<path d="M55.6168 207.029C48.0985 207.51 39.9065 207.001 31.1917 207.029V187.077C38.8709 188.272 47.0602 188.149 55.6168 187.077V207.029Z" fill="#E6E6E6"/>
<path d="M232.835 115.766L153.047 128.614L152.709 51.0456L232.497 0L232.835 115.766Z" fill="#E6E6E6"/>
<path d="M225.397 104.271L156.428 119.147V54.2344L225.397 16.8007V104.271Z" fill="white"/>
<path d="M218.636 44.7683L160.485 70.8091V61.6723L218.636 32.9449V44.7683Z" fill="#3F3D56"/>
<path d="M218.636 69.1105L160.485 89.6206V80.6054L218.636 57.4443V69.1105Z" fill="#2B386F"/>
<path d="M182.952 57.8148C182.963 57.7687 182.989 57.7275 183.026 57.6976C183.063 57.6677 183.108 57.6506 183.156 57.649C183.203 57.6475 183.25 57.6615 183.289 57.6889C183.328 57.7163 183.356 57.7557 183.371 57.801L184.312 60.7683L185.44 64.3232C185.457 64.3752 185.453 64.4314 185.43 64.4809C185.407 64.5303 185.367 64.5693 185.316 64.5903L183.137 65.4986L181.221 66.2969C181.184 66.3124 181.143 66.3173 181.103 66.311C181.063 66.3047 181.026 66.2874 180.995 66.2612C180.965 66.2349 180.942 66.2007 180.93 66.1623C180.917 66.1239 180.916 66.0828 180.926 66.0436L181.973 61.7877L182.952 57.8148Z" fill="#E6E6E6"/>
<path d="M179.454 79.9403C179.473 79.8642 179.516 79.7962 179.577 79.7469C179.638 79.6975 179.713 79.6694 179.792 79.6668C179.87 79.6642 179.947 79.6873 180.011 79.7326C180.075 79.7778 180.123 79.8428 180.146 79.9175L180.936 82.4049L182.024 85.836C182.051 85.9217 182.046 86.0145 182.008 86.0961C181.97 86.1777 181.903 86.2422 181.82 86.2768L179.76 87.1351L178.103 87.8253C178.042 87.8509 177.975 87.859 177.909 87.8486C177.843 87.8382 177.782 87.8097 177.731 87.7664C177.681 87.7231 177.643 87.6666 177.623 87.6032C177.602 87.5398 177.6 87.472 177.616 87.4074L178.597 83.4243L179.454 79.9403Z" fill="#E6E6E6"/>
<path d="M218.636 93.4527L160.485 108.432V98.8618L218.636 81.0689V93.4527Z" fill="#F2F2F2"/>
<path d="M217.283 51.3452C217.283 53.3813 216.371 55.4059 215.255 55.8634C214.148 56.3169 213.258 55.0572 213.258 53.0532C213.258 51.0493 214.148 49.0342 215.255 48.5486C216.371 48.0588 217.283 49.3091 217.283 51.3452Z" fill="#3F3D56"/>
<path d="M215.931 51.9191C215.931 52.5978 215.628 53.2752 215.255 53.4316C214.883 53.5877 214.582 53.1665 214.582 52.4914C214.582 51.8163 214.883 51.14 215.255 50.9804C215.628 50.8203 215.931 51.2404 215.931 51.9191Z" fill="white"/>
<path d="M217.283 75.0113C217.283 77.0474 216.371 79.0719 215.255 79.5295C214.148 79.983 213.258 78.7233 213.258 76.7193C213.258 74.7154 214.148 72.7003 215.255 72.2147C216.371 71.7248 217.283 72.9751 217.283 75.0113Z" fill="#2B386F"/>
<path d="M215.931 75.5851C215.931 76.2638 215.628 76.9412 215.255 77.0977C214.883 77.2537 214.582 76.8325 214.582 76.1574C214.582 75.4823 214.883 74.806 215.255 74.6464C215.628 74.4863 215.931 74.9064 215.931 75.5851Z" fill="white"/>
<path d="M217.283 98.6773C217.283 100.713 216.371 102.738 215.255 103.196C214.148 103.649 213.258 102.389 213.258 100.385C213.258 98.3814 214.148 96.3663 215.255 95.8807C216.371 95.3908 217.283 96.6412 217.283 98.6773Z" fill="#F2F2F2"/>
<path d="M215.931 99.2512C215.931 99.9299 215.628 100.607 215.255 100.764C214.883 100.92 214.582 100.499 214.582 99.8235C214.582 99.1484 214.883 98.4721 215.255 98.3125C215.628 98.1524 215.931 98.5725 215.931 99.2512Z" fill="white"/>
<path d="M184.86 99.5503C184.878 99.4742 184.921 99.4063 184.982 99.3569C185.043 99.3076 185.119 99.2794 185.197 99.2769C185.275 99.2743 185.352 99.2974 185.416 99.3426C185.48 99.3879 185.528 99.4528 185.552 99.5275L186.341 102.015L187.43 105.446C187.457 105.532 187.451 105.625 187.413 105.706C187.375 105.788 187.308 105.852 187.225 105.887L185.165 106.745L183.509 107.435C183.447 107.461 183.38 107.469 183.314 107.459C183.248 107.448 183.187 107.42 183.136 107.376C183.086 107.333 183.048 107.277 183.028 107.213C183.008 107.15 183.005 107.082 183.021 107.017L184.002 103.034L184.86 99.5503Z" fill="#E6E6E6"/>
<path d="M171.134 95.3904L174.28 92.4887C174.28 92.4887 181.401 87.5841 178.914 84.8877C176.426 82.1913 171.413 88.479 171.413 88.479L168.302 90.5168L171.134 95.3904Z" fill="#A0616A"/>
<path d="M129.544 96.7407L127.712 99.2627C127.712 99.2627 125.151 109.111 138.11 109.634C138.11 109.634 154.66 117.657 158.757 112.63C162.854 107.604 174.158 95.5124 174.158 95.5124L167.508 88.7541L153.957 102.918L140.81 96.33C140.81 96.33 134.038 92.5954 129.544 96.7407Z" fill="#2F2E41"/>
<path d="M120.92 143.473L103.762 206.688L105.923 207.12L123.946 143.473H120.92Z" fill="#E6E6E6"/>
<path d="M141.721 143.473L158.879 206.688L156.717 207.12L138.695 143.473H141.721Z" fill="#E6E6E6"/>
<path d="M129.998 142.176L132.876 206.794L135.374 206.905L132.16 141.311L129.998 142.176Z" fill="#E6E6E6"/>
<path d="M137.996 141.153C137.996 142.792 133.509 144.552 127.621 145.117C121.3 145.724 115.826 144.739 115.826 142.876C115.826 141.013 121.3 139.177 127.621 138.802C133.509 138.452 137.996 139.514 137.996 141.153Z" fill="#E6E6E6"/>
<path d="M144.265 130.071L148.588 133.097C148.588 133.097 167.178 146.499 165.448 151.686C163.719 156.874 154.208 177.625 154.208 177.625L142.103 173.734L155.937 151.686L148.588 144.769L144.697 135.258L144.265 130.071Z" fill="#2F2E41"/>
<path d="M127.404 122.289C127.404 122.289 118.758 135.691 123.946 139.582C129.134 143.472 143.832 158.603 143.832 158.603L146.859 165.521L157.666 200.538L171.068 193.621L158.963 166.385C158.963 166.385 157.666 156.442 153.343 150.822C149.02 145.202 147.291 136.988 147.291 136.988L148.588 133.097L140.847 120.711L127.404 122.289Z" fill="#2F2E41"/>
<path d="M150.915 175.148L143.145 172.783C143.145 172.783 134.754 172.438 135.186 175.464C135.619 178.49 142.536 198.376 144.697 197.079C146.859 195.782 145.13 189.73 145.13 189.73L150.915 175.148Z" fill="#2F2E41"/>
<path d="M133.673 80.1385L129.35 84.8939L136.267 96.1341L139.293 87.4878L133.673 80.1385Z" fill="#A0616A"/>
<path d="M137.78 96.7825L130.102 84.0671L127.404 84.6777V89.0009L126.54 125.315L140.806 123.154C140.806 123.154 141.671 99.8087 137.78 96.7825Z" fill="#2B386F"/>
<path d="M133.889 96.3502L127.405 84.6777L121.784 87.2716L111.841 127.909L105.789 139.582C105.789 139.582 125.675 149.525 130.431 139.582C135.186 129.638 135.619 107.59 135.619 107.59L133.889 96.3502Z" fill="#2F2E41"/>
<path d="M124.378 89.0008L121.784 87.2716C121.784 87.2716 111.841 85.11 111.841 98.0794C111.841 98.0794 104.492 114.94 109.68 118.831C114.867 122.721 127.405 133.529 127.405 133.529L133.889 126.612L119.191 113.643L125.243 100.241C125.243 100.241 128.701 93.324 124.378 89.0008Z" fill="#2F2E41"/>
<path d="M127.405 130.503L130.431 133.529C130.431 133.529 135.619 140.446 138.212 137.852C140.806 135.258 134.322 130.503 134.322 130.503L132.16 127.477L127.405 130.503Z" fill="#A0616A"/>
<path d="M137.279 92.8593L144.697 111.049C144.697 111.049 147.723 120.127 147.723 123.586V133.097L139.509 122.289C139.509 122.289 135.048 94.1238 137.279 92.8593Z" fill="#2F2E41"/>
<path d="M160.898 197.09C160.898 197.09 158.756 205.523 161.567 206.237C164.378 206.95 187.962 207.554 187.977 203.569C187.992 199.583 172.671 196.29 172.671 196.29L167.01 192.658L160.898 197.09Z" fill="#2F2E41"/>
<path d="M139.077 88.1363C143.375 88.1363 146.859 84.6523 146.859 80.3546C146.859 76.0569 143.375 72.5729 139.077 72.5729C134.779 72.5729 131.295 76.0569 131.295 80.3546C131.295 84.6523 134.779 88.1363 139.077 88.1363Z" fill="#A0616A"/>
<path d="M147.375 78.9573C147.375 78.9573 148.895 72.3707 147.375 70.8507V71.864C147.375 71.864 146.362 68.3173 144.335 69.3307C144.335 69.3307 141.802 67.304 141.295 68.3173C138.314 65.6221 125.095 68.1489 131.512 82.3C131.512 82.3 132.682 77.944 132.682 79.464C132.682 79.464 135.722 76.424 136.228 75.4107C136.735 74.3973 145.348 80.984 147.375 78.9573Z" fill="#2F2E41"/>
<path d="M300 206.646H0V207.403H300V206.646Z" fill="#3F3D56"/>
</g>
<defs>
<clipPath id="clip0">
<rect width="300" height="207.403" fill="white"/>
</clipPath>
</defs>
</svg>
