<svg width="300" height="222" viewBox="0 0 300 222" fill="none" xmlns="http://www.w3.org/2000/svg">
<g clip-path="url(#clip0)">
<g opacity="0.1">
<path opacity="0.1" d="M240.213 157.274C240.213 157.274 218.797 154.493 234.769 189.155C234.769 189.155 249.325 182.918 249.904 168.849C250.022 166.111 249.132 163.425 247.402 161.3C245.671 159.174 243.222 157.758 240.517 157.318L240.213 157.274Z" fill="#2B386F"/>
<path opacity="0.1" d="M240.528 157.222C240.528 157.222 245.376 176.549 234.785 189.158" stroke="#535461" stroke-miterlimit="10"/>
<path opacity="0.1" d="M234.496 190.944C234.496 190.944 242.207 171.939 256.607 164.889C262.67 161.971 267.622 157.164 270.719 151.19C272.166 148.344 273.35 145.372 274.255 142.311" stroke="#535461" stroke-width="2" stroke-miterlimit="10"/>
<path opacity="0.1" d="M283.303 137.818C281.802 139.705 274.033 142.467 274.033 142.467C274.033 142.467 274.969 134.263 276.47 132.39C276.812 131.901 277.251 131.487 277.76 131.174C278.268 130.861 278.835 130.656 279.426 130.57C280.016 130.484 280.619 130.52 281.195 130.676C281.771 130.832 282.309 131.104 282.777 131.475C283.244 131.847 283.63 132.31 283.912 132.837C284.193 133.363 284.364 133.941 284.414 134.536C284.463 135.131 284.391 135.73 284.2 136.296C284.01 136.862 283.705 137.382 283.306 137.826L283.303 137.818Z" fill="#2B386F"/>
<path opacity="0.1" d="M280.637 152.762C278.351 153.53 270.334 151.619 270.334 151.619C270.334 151.619 275.57 145.253 277.856 144.485C278.41 144.258 279.004 144.147 279.603 144.159C280.201 144.171 280.791 144.305 281.335 144.554C281.879 144.803 282.366 145.161 282.767 145.605C283.167 146.05 283.472 146.572 283.663 147.139C283.853 147.707 283.926 148.307 283.875 148.903C283.824 149.5 283.652 150.079 283.368 150.606C283.085 151.133 282.696 151.596 282.226 151.967C281.756 152.338 281.216 152.608 280.637 152.762Z" fill="#2B386F"/>
<path opacity="0.1" d="M266.183 170.429C263.823 169.94 257.865 164.241 257.865 164.241C257.865 164.241 265.598 161.389 267.96 161.879C269.029 162.177 269.945 162.87 270.522 163.818C271.1 164.766 271.295 165.897 271.069 166.984C270.843 168.071 270.213 169.031 269.306 169.67C268.398 170.309 267.282 170.58 266.183 170.427V170.429Z" fill="#2B386F"/>
<path opacity="0.1" d="M252.237 181.335C249.828 181.25 242.992 176.642 242.992 176.642C242.992 176.642 250.134 172.519 252.543 172.606C253.648 172.718 254.668 173.247 255.398 174.083C256.127 174.92 256.512 176.003 256.473 177.112C256.434 178.222 255.975 179.275 255.188 180.058C254.402 180.842 253.347 181.297 252.237 181.332V181.335Z" fill="#2B386F"/>
<path opacity="0.1" d="M262.868 146.268C263.177 148.66 268.398 155.037 268.398 155.037C268.398 155.037 271.835 147.545 271.529 145.152C271.491 144.554 271.331 143.971 271.059 143.438C270.787 142.905 270.408 142.433 269.947 142.052C269.485 141.671 268.95 141.389 268.375 141.223C267.8 141.057 267.197 141.011 266.603 141.087C266.009 141.164 265.438 141.361 264.923 141.667C264.409 141.974 263.963 142.382 263.613 142.868C263.263 143.354 263.016 143.906 262.888 144.491C262.76 145.075 262.753 145.68 262.868 146.268Z" fill="#2B386F"/>
<path opacity="0.1" d="M246.719 159.24C247.728 161.427 254.618 165.953 254.618 165.953C254.618 165.953 255.658 157.774 254.648 155.587C254.433 155.028 254.106 154.52 253.687 154.093C253.268 153.666 252.766 153.33 252.211 153.105C251.657 152.88 251.062 152.771 250.464 152.785C249.866 152.799 249.277 152.935 248.734 153.186C248.19 153.436 247.704 153.795 247.305 154.241C246.906 154.687 246.603 155.21 246.414 155.778C246.225 156.345 246.155 156.946 246.207 157.542C246.26 158.138 246.434 158.717 246.719 159.243V159.24Z" fill="#2B386F"/>
<path opacity="0.1" d="M232.751 173.99C233.374 176.319 239.404 181.942 239.404 181.942C239.404 181.942 241.81 174.058 241.184 171.728C241.068 171.141 240.832 170.583 240.491 170.091C240.15 169.598 239.712 169.18 239.204 168.864C238.695 168.548 238.127 168.339 237.534 168.251C236.942 168.163 236.338 168.198 235.759 168.353C235.181 168.508 234.64 168.78 234.171 169.153C233.702 169.525 233.314 169.99 233.032 170.519C232.75 171.047 232.58 171.628 232.531 172.225C232.483 172.822 232.558 173.423 232.751 173.99Z" fill="#2B386F"/>
<path opacity="0.25" d="M283.303 137.818C281.802 139.705 274.033 142.467 274.033 142.467C274.033 142.467 274.969 134.263 276.47 132.39C276.812 131.901 277.251 131.487 277.76 131.174C278.268 130.861 278.835 130.656 279.426 130.57C280.016 130.484 280.619 130.52 281.195 130.676C281.771 130.832 282.309 131.104 282.777 131.475C283.244 131.847 283.63 132.31 283.912 132.837C284.193 133.363 284.364 133.941 284.414 134.536C284.463 135.131 284.391 135.73 284.2 136.296C284.01 136.862 283.705 137.382 283.306 137.826L283.303 137.818Z" fill="black"/>
<path opacity="0.25" d="M280.637 152.762C278.351 153.53 270.334 151.619 270.334 151.619C270.334 151.619 275.57 145.253 277.856 144.485C278.41 144.258 279.004 144.147 279.603 144.159C280.201 144.171 280.791 144.305 281.335 144.554C281.879 144.803 282.366 145.161 282.767 145.605C283.167 146.05 283.472 146.572 283.663 147.139C283.853 147.707 283.926 148.307 283.875 148.903C283.824 149.5 283.652 150.079 283.368 150.606C283.085 151.133 282.696 151.596 282.226 151.967C281.756 152.338 281.216 152.608 280.637 152.762Z" fill="black"/>
<path opacity="0.25" d="M266.183 170.429C263.823 169.94 257.865 164.241 257.865 164.241C257.865 164.241 265.598 161.389 267.96 161.879C269.029 162.177 269.945 162.87 270.522 163.818C271.1 164.766 271.295 165.897 271.069 166.984C270.843 168.071 270.213 169.031 269.306 169.67C268.398 170.309 267.282 170.58 266.183 170.427V170.429Z" fill="black"/>
<path opacity="0.25" d="M252.237 181.335C249.828 181.25 242.992 176.642 242.992 176.642C242.992 176.642 250.134 172.519 252.543 172.606C253.648 172.718 254.668 173.247 255.398 174.083C256.127 174.92 256.512 176.003 256.473 177.112C256.434 178.222 255.975 179.275 255.188 180.058C254.402 180.842 253.347 181.297 252.237 181.332V181.335Z" fill="black"/>
<path opacity="0.25" d="M262.868 146.268C263.177 148.66 268.398 155.037 268.398 155.037C268.398 155.037 271.835 147.545 271.529 145.152C271.491 144.554 271.331 143.971 271.059 143.438C270.787 142.905 270.408 142.433 269.947 142.052C269.485 141.671 268.95 141.389 268.375 141.223C267.8 141.057 267.197 141.011 266.603 141.087C266.009 141.164 265.438 141.361 264.923 141.667C264.409 141.974 263.963 142.382 263.613 142.868C263.263 143.354 263.016 143.906 262.888 144.491C262.76 145.075 262.753 145.68 262.868 146.268Z" fill="black"/>
<path opacity="0.25" d="M246.719 159.24C247.728 161.427 254.618 165.953 254.618 165.953C254.618 165.953 255.658 157.774 254.648 155.587C254.433 155.028 254.106 154.52 253.687 154.093C253.268 153.666 252.766 153.33 252.211 153.105C251.657 152.88 251.062 152.771 250.464 152.785C249.866 152.799 249.277 152.935 248.734 153.186C248.19 153.436 247.704 153.795 247.305 154.241C246.906 154.687 246.603 155.21 246.414 155.778C246.225 156.345 246.155 156.946 246.207 157.542C246.26 158.138 246.434 158.717 246.719 159.243V159.24Z" fill="black"/>
<path opacity="0.25" d="M232.751 173.99C233.374 176.319 239.404 181.942 239.404 181.942C239.404 181.942 241.81 174.058 241.184 171.728C241.068 171.141 240.832 170.583 240.491 170.091C240.15 169.598 239.712 169.18 239.204 168.864C238.695 168.548 238.127 168.339 237.534 168.251C236.942 168.163 236.338 168.198 235.759 168.353C235.181 168.508 234.64 168.78 234.171 169.153C233.702 169.525 233.314 169.99 233.032 170.519C232.75 171.047 232.58 171.628 232.531 172.225C232.483 172.822 232.558 173.423 232.751 173.99Z" fill="black"/>
<path opacity="0.1" d="M244.766 199.59C244.766 199.59 252.478 180.585 266.877 173.536C272.938 170.615 277.887 165.807 280.982 159.833C282.429 156.988 283.613 154.016 284.518 150.954" stroke="#535461" stroke-width="2" stroke-miterlimit="10"/>
<path opacity="0.1" d="M293.56 146.459C292.059 148.346 284.291 151.107 284.291 151.107C284.291 151.107 285.226 142.904 286.727 141.031C287.472 140.203 288.506 139.69 289.616 139.597C290.726 139.505 291.83 139.839 292.703 140.533C293.575 141.226 294.149 142.227 294.309 143.329C294.469 144.432 294.202 145.554 293.563 146.467L293.56 146.459Z" fill="#2B386F"/>
<path opacity="0.1" d="M290.9 161.403C288.614 162.171 280.596 160.26 280.596 160.26C280.596 160.26 285.833 153.894 288.119 153.126C289.193 152.841 290.335 152.975 291.314 153.502C292.292 154.028 293.034 154.908 293.388 155.961C293.742 157.014 293.682 158.163 293.22 159.174C292.757 160.184 291.928 160.981 290.9 161.403Z" fill="#2B386F"/>
<path opacity="0.1" d="M276.445 179.081C274.085 178.592 268.127 172.893 268.127 172.893C268.127 172.893 275.86 170.041 278.223 170.53C279.292 170.828 280.208 171.521 280.785 172.469C281.362 173.417 281.558 174.549 281.332 175.636C281.106 176.722 280.475 177.682 279.568 178.321C278.661 178.961 277.545 179.231 276.445 179.078V179.081Z" fill="#2B386F"/>
<path opacity="0.1" d="M262.497 189.973C260.088 189.888 253.251 185.28 253.251 185.28C253.251 185.28 260.394 181.162 262.803 181.247C263.907 181.359 264.928 181.887 265.658 182.724C266.387 183.561 266.771 184.644 266.733 185.753C266.694 186.863 266.234 187.916 265.448 188.699C264.661 189.483 263.606 189.938 262.497 189.973Z" fill="#2B386F"/>
<path opacity="0.1" d="M273.128 154.919C273.437 157.312 278.657 163.689 278.657 163.689C278.657 163.689 282.095 156.196 281.788 153.804C281.751 153.206 281.591 152.623 281.319 152.09C281.047 151.557 280.668 151.085 280.207 150.704C279.745 150.323 279.21 150.041 278.635 149.875C278.06 149.709 277.456 149.663 276.863 149.739C276.269 149.815 275.697 150.013 275.183 150.319C274.669 150.626 274.223 151.034 273.873 151.52C273.523 152.005 273.276 152.558 273.148 153.142C273.02 153.727 273.013 154.332 273.128 154.919Z" fill="#2B386F"/>
<path opacity="0.1" d="M256.981 167.87C257.99 170.058 264.881 174.583 264.881 174.583C264.881 174.583 265.92 166.404 264.911 164.217C264.382 163.239 263.5 162.5 262.445 162.149C261.391 161.798 260.242 161.862 259.232 162.327C258.223 162.793 257.428 163.625 257.01 164.655C256.592 165.685 256.582 166.835 256.981 167.873V167.87Z" fill="#2B386F"/>
<path opacity="0.1" d="M243.014 182.636C243.637 184.966 249.667 190.588 249.667 190.588C249.667 190.588 252.073 182.704 251.447 180.375C251.089 179.324 250.345 178.448 249.365 177.926C248.386 177.403 247.244 177.272 246.172 177.56C245.1 177.847 244.177 178.532 243.591 179.474C243.004 180.417 242.798 181.547 243.014 182.636Z" fill="#2B386F"/>
</g>
<path opacity="0.1" d="M3.24023 117.574C7.9873 137.864 18.0365 155.403 33.9184 163.905C66.9236 181.572 141.359 172.461 196.913 161.991C224.982 156.72 250.461 142.156 269.248 120.645L3.24023 117.574Z" fill="#2B386F"/>
<path opacity="0.1" d="M294.558 22.07H264.077C263.378 22.07 262.708 21.7924 262.214 21.2983C261.72 20.8042 261.442 20.1341 261.442 19.4353C261.442 18.7366 261.72 18.0664 262.214 17.5723C262.708 17.0782 263.378 16.8007 264.077 16.8007H269.346C268.648 16.8007 267.978 16.5231 267.483 16.029C266.989 15.5349 266.712 14.8647 266.712 14.166C266.712 13.4672 266.989 12.7971 267.483 12.303C267.978 11.8089 268.648 11.5313 269.346 11.5313H265.584C264.885 11.5313 264.215 11.2537 263.721 10.7596C263.227 10.2655 262.949 9.5954 262.949 8.89665C262.949 8.19789 263.227 7.52775 263.721 7.03365C264.215 6.53955 264.885 6.26197 265.584 6.26197H281.493C277.963 4.62128 273.836 3.45366 269.084 2.84114C225.704 -2.73174 210.216 0.954342 204.753 4.75527C198.012 9.43124 190.492 12.8712 182.456 14.5283C155.688 20.0438 105.633 26.6886 60.2653 12.3954C37.7167 5.28576 20.9571 17.2956 10.9133 37.3558H299.85C299.472 31.5259 298.343 26.1444 296.27 21.4301C295.795 21.842 295.187 22.0691 294.558 22.07Z" fill="#2B386F"/>
<path opacity="0.1" d="M0.653571 75.2256C-0.516647 87.0263 -0.118507 98.93 1.8376 110.626L269.456 120.413C276.906 111.843 283.16 102.304 288.05 92.0563L0.653571 75.2256ZM106.5 100.479H101.231C101.929 100.479 102.599 100.756 103.094 101.25C103.588 101.744 103.865 102.414 103.865 103.113C103.865 103.812 103.588 104.482 103.094 104.976C102.599 105.47 101.929 105.748 101.231 105.748H70.7493C70.0505 105.748 69.3804 105.47 68.8863 104.976C68.3922 104.482 68.1146 103.812 68.1146 103.113C68.1146 102.414 68.3922 101.744 68.8863 101.25C69.3804 100.756 70.0505 100.479 70.7493 100.479H76.0186C75.3199 100.479 74.6497 100.201 74.1556 99.7068C73.6615 99.2127 73.3839 98.5426 73.3839 97.8439C73.3839 97.1451 73.6615 96.4749 74.1556 95.9809C74.6497 95.4868 75.3199 95.2092 76.0186 95.2092H72.256C71.5572 95.2092 70.8871 94.9316 70.393 94.4375C69.8989 93.9434 69.6213 93.2733 69.6213 92.5745C69.6213 91.8757 69.8989 91.2056 70.393 90.7115C70.8871 90.2174 71.5572 89.9398 72.256 89.9398H102.737C103.436 89.9398 104.106 90.2174 104.6 90.7115C105.094 91.2056 105.372 91.8757 105.372 92.5745C105.372 93.2733 105.094 93.9434 104.6 94.4375C104.106 94.9316 103.436 95.2092 102.737 95.2092H106.5C107.199 95.2092 107.869 95.4868 108.363 95.9809C108.857 96.4749 109.135 97.1451 109.135 97.8439C109.135 98.5426 108.857 99.2127 108.363 99.7068C107.869 100.201 107.199 100.479 106.5 100.479Z" fill="#2B386F"/>
<path opacity="0.1" d="M299.863 37.5391L7.6866 44.6487C4.13451 53.7846 1.79106 64.1128 0.697266 74.8182H294.744C296.664 68.5296 298.084 62.099 298.991 55.5866C299.866 49.2946 300.216 43.2076 299.863 37.5391ZM60.0137 60.8286H54.7443C55.4431 60.8286 56.1132 61.1062 56.6073 61.6003C57.1014 62.0944 57.379 62.7646 57.379 63.4633C57.379 64.1621 57.1014 64.8322 56.6073 65.3263C56.1132 65.8204 55.4431 66.098 54.7443 66.098H24.263C23.5643 66.098 22.8941 65.8204 22.4 65.3263C21.9059 64.8322 21.6284 64.1621 21.6284 63.4633C21.6284 62.7646 21.9059 62.0944 22.4 61.6003C22.8941 61.1062 23.5643 60.8286 24.263 60.8286H29.5324C28.8336 60.8286 28.1635 60.5511 27.6694 60.057C27.1753 59.5629 26.8977 58.8927 26.8977 58.194C26.8977 57.4952 27.1753 56.8251 27.6694 56.331C28.1635 55.8369 28.8336 55.5593 29.5324 55.5593H25.7697C25.071 55.5593 24.4008 55.2817 23.9067 54.7876C23.4126 54.2935 23.1351 53.6234 23.1351 52.9246C23.1351 52.2259 23.4126 51.5557 23.9067 51.0616C24.4008 50.5675 25.071 50.2899 25.7697 50.2899H56.251C56.9498 50.2899 57.6199 50.5675 58.114 51.0616C58.6081 51.5557 58.8857 52.2259 58.8857 52.9246C58.8857 53.6234 58.6081 54.2935 58.114 54.7876C57.6199 55.2817 56.9498 55.5593 56.251 55.5593H60.0137C60.7124 55.5593 61.3825 55.8369 61.8766 56.331C62.3707 56.8251 62.6483 57.4952 62.6483 58.194C62.6483 58.8927 62.3707 59.5629 61.8766 60.057C61.3825 60.5511 60.7124 60.8286 60.0137 60.8286Z" fill="#2B386F"/>
<path d="M256.68 221.849C256.68 221.849 244.495 155.018 221.26 144.173C201.572 134.977 180.282 128.778 174.227 127.096C173.323 125.64 172.278 124.276 171.107 123.024C162.833 114.386 157.862 114.548 157.058 114.654C156.676 112.941 156.402 111.206 156.237 109.459C156.213 109.185 156.188 108.931 156.166 108.66L156.237 108.625C156.188 108.108 156.144 107.575 156.106 107.025C159.484 105.222 162.594 102.957 165.346 100.295C165.381 100.413 165.411 100.531 165.45 100.651C171.413 95.6103 177.253 90.433 182.97 85.119C184.61 83.585 186.333 81.9197 186.891 79.7567C187.069 79.0123 187.139 78.2459 187.096 77.4816C187.17 75.8409 186.781 74.1647 186.716 72.5021C186.716 72.2287 186.746 71.9743 186.781 71.7146C187.164 68.9938 189.057 66.7597 190.61 64.4764C194.49 58.7063 196.516 51.8886 196.415 44.9358C196.457 41.6043 195.997 38.2855 195.048 35.0916C193.836 31.0391 191.315 26.7816 187.118 25.8956C185.493 25.5538 183.806 25.7671 182.149 25.6604C175.288 25.2229 170.153 19.6446 164.681 15.5565C158.003 10.5913 150.106 7.52601 141.827 6.68584C139.242 6.41239 136.574 6.39325 134.115 7.2136C128.594 9.05117 125.242 14.7252 119.923 17.0577C115.991 18.7914 111.446 18.5097 107.345 19.8114C101.239 21.7528 96.0568 28.0148 95.92 34.449C95.92 34.6869 95.92 34.9248 95.92 35.1627C95.92 35.2038 95.92 35.2448 95.92 35.2831C95.8517 38.5344 97.0138 41.8458 97.1068 45.1737C97.1068 45.4745 97.1114 45.7762 97.1205 46.0788C97.0904 49.6719 96.6611 53.276 95.3513 56.653C94.6458 58.4715 93.7379 60.577 93.8856 62.3955C93.8036 63.5084 94.0196 64.553 94.7934 65.4034L96.1142 64.2385C95.6712 66.6359 95.4488 69.0688 95.4497 71.5068C95.4497 83.7955 101.039 94.7991 109.855 102.204C109.906 103.023 109.955 103.899 110.003 104.835C110.21 108.887 110.375 113.971 110.328 119.511L97.4322 131.365L64.2793 146.404C64.2793 146.404 33.9594 152.808 40.4894 195.403L43.6067 221.851H71.2878L71.2249 221.991H112.311L112.335 221.851H210.087L210.068 221.991H213.897V221.851L256.68 221.849ZM157.301 115.332C158.139 117.066 158.799 118.88 159.27 120.747C158.302 118.95 157.587 117.029 157.145 115.037L157.186 115.111L157.301 115.332ZM110.317 120.801C110.317 121.323 110.308 121.849 110.29 122.379L110.224 122.472C110.22 121.909 110.251 121.347 110.317 120.788V120.801Z" fill="url(#paint0_linear)"/>
<path d="M168.116 127.509L162.647 179.738L133.388 189.035C133.388 189.035 95.3788 181.925 105.223 161.417C112.226 146.828 112.032 120.758 111.337 106.921C111.064 101.304 110.692 97.7032 110.692 97.7032C110.692 97.7032 160.46 54.2249 156.358 93.328C155.565 100.9 155.518 106.82 155.959 111.447C157.804 130.708 168.116 127.509 168.116 127.509Z" fill="#FDC2CC"/>
<path opacity="0.03" d="M168.116 127.509L162.647 179.738L133.388 189.035C133.388 189.035 95.3788 181.925 105.223 161.417C112.226 146.828 112.032 120.758 111.337 106.921C111.064 101.304 110.692 97.7032 110.692 97.7032C110.692 97.7032 160.46 54.2249 156.358 93.328C155.565 100.9 155.518 106.82 155.959 111.447C157.804 130.708 168.116 127.509 168.116 127.509Z" fill="black"/>
<path opacity="0.1" d="M156.358 92.5077C155.565 100.079 155.518 106 155.958 110.626C148.933 114.462 140.911 116.083 132.947 115.275C124.983 114.467 117.45 111.269 111.337 106.101C111.064 100.484 110.692 96.8829 110.692 96.8829C110.692 96.8829 160.459 53.4046 156.358 92.5077Z" fill="black"/>
<path d="M136.943 113.839C158.841 113.839 176.593 96.0874 176.593 74.1893C176.593 52.2912 158.841 34.5393 136.943 34.5393C115.045 34.5393 97.2927 52.2912 97.2927 74.1893C97.2927 96.0874 115.045 113.839 136.943 113.839Z" fill="#FDC2CC"/>
<path opacity="0.03" d="M136.943 113.839C158.841 113.839 176.593 96.0874 176.593 74.1893C176.593 52.2912 158.841 34.5393 136.943 34.5393C115.045 34.5393 97.2927 52.2912 97.2927 74.1893C97.2927 96.0874 115.045 113.839 136.943 113.839Z" fill="black"/>
<path opacity="0.1" d="M71.5886 180.284C71.5886 180.284 84.4407 206.535 85.1243 221.985L71.5886 180.284Z" fill="black"/>
<path opacity="0.1" d="M211.594 195.327L207.903 221.988H211.594V195.327Z" fill="black"/>
<path opacity="0.1" d="M74.46 221.985L94.8319 175.636C94.8319 175.636 100.574 164.698 101.942 153.76C103.309 142.822 110.692 125.595 110.692 125.595C110.692 125.595 129.013 102.352 137.49 105.633C145.967 108.914 130.107 121.22 130.107 121.22C130.107 121.22 153.35 130.243 137.49 157.041C121.63 183.839 121.356 178.917 121.356 178.917L113.563 221.985H74.46Z" fill="black"/>
<path d="M73.9131 221.985L94.285 175.636C94.285 175.636 100.027 164.698 101.395 153.76C102.264 146.806 105.565 137.309 107.853 131.313C109.347 127.392 111.546 123.778 114.34 120.648C120.263 114.02 131.02 103.331 136.943 105.628C145.42 108.909 129.56 121.214 129.56 121.214C129.56 121.214 152.803 130.238 136.943 157.036C121.083 183.834 120.809 178.912 120.809 178.912L113.016 221.98L73.9131 221.985Z" fill="#FDC2CC"/>
<path opacity="0.15" d="M149.111 52.7235C149.564 52.7235 149.932 52.3562 149.932 51.9031C149.932 51.45 149.564 51.0828 149.111 51.0828C148.658 51.0828 148.291 51.45 148.291 51.9031C148.291 52.3562 148.658 52.7235 149.111 52.7235Z" fill="white"/>
<path opacity="0.15" d="M145.283 54.3641C145.736 54.3641 146.103 53.9968 146.103 53.5437C146.103 53.0907 145.736 52.7234 145.283 52.7234C144.83 52.7234 144.463 53.0907 144.463 53.5437C144.463 53.9968 144.83 54.3641 145.283 54.3641Z" fill="white"/>
<path opacity="0.1" d="M108.775 24.2221C112.732 22.9424 117.123 23.2186 120.919 21.5177C126.051 19.2153 129.286 13.6424 134.613 11.8377C136.987 11.0337 139.562 11.0638 142.054 11.3208C150.064 12.1545 157.693 15.1687 164.11 20.0356C169.39 24.0526 174.345 29.5298 180.965 29.9591C182.565 30.063 184.192 29.8524 185.759 30.1888C189.817 31.0583 192.248 35.2393 193.415 39.2125C194.766 43.9213 195.083 48.8664 194.344 53.7089C193.605 58.5515 191.827 63.177 189.133 67.2683C187.635 69.5106 185.808 71.7064 185.439 74.378C185.078 76.9976 186.194 79.713 185.543 82.2779C184.996 84.4026 183.355 86.0378 181.758 87.5445C176.244 92.7601 170.608 97.8417 164.851 102.789C161.859 93.2842 166.248 83.049 165.565 73.1092C165.291 69.2372 163.924 65.0097 160.509 63.183C157.312 61.4767 153.227 62.3627 149.992 60.722C146.382 58.9036 144.9 54.5967 142.171 51.6162C137.522 46.53 129.453 45.8737 122.953 48.1707C116.453 50.4677 111.14 55.1929 105.999 59.8005L96.6556 68.1816C94.8317 66.1253 96.2154 62.9697 97.2025 60.3993C98.6737 56.5464 98.9964 52.3928 98.8979 48.302C98.8186 45.0206 97.6865 41.7802 97.7522 38.5864C97.8834 32.2861 102.882 26.1281 108.775 24.2221Z" fill="black"/>
<path d="M108.775 23.4018C112.732 22.1221 117.123 22.3983 120.919 20.6974C126.051 18.395 129.286 12.8221 134.613 11.0173C136.987 10.2134 139.562 10.2435 142.054 10.5005C150.064 11.3342 157.693 14.3484 164.11 19.2153C169.39 23.2323 174.345 28.7094 180.965 29.1388C182.565 29.2427 184.192 29.0321 185.759 29.3685C189.817 30.238 192.248 34.419 193.415 38.3922C194.766 43.101 195.083 48.0461 194.344 52.8886C193.605 57.7312 191.827 62.3567 189.133 66.448C187.635 68.6903 185.808 70.8861 185.439 73.5577C185.078 76.1773 186.194 78.8927 185.543 81.4576C184.996 83.5823 183.355 85.2175 181.758 86.7242C176.244 91.9398 170.608 97.0214 164.851 101.969C161.859 92.4639 166.248 82.2287 165.565 72.2889C165.291 68.4169 163.924 64.1894 160.509 62.3627C157.312 60.6564 153.227 61.5424 149.992 59.9017C146.382 58.0833 144.9 53.7764 142.171 50.7959C137.522 45.7097 129.453 45.0534 122.953 47.3504C116.453 49.6474 111.14 54.3726 105.999 58.9802L96.6556 67.3614C94.8317 65.305 96.2154 62.1494 97.2025 59.579C98.6737 55.7261 98.9964 51.5724 98.8979 47.4817C98.8186 44.2003 97.6865 40.9599 97.7522 37.766C97.8834 31.4658 102.882 25.3077 108.775 23.4018Z" fill="#865A61"/>
</g>
<defs>
<linearGradient id="paint0_linear" x1="148.121" y1="221.985" x2="148.121" y2="6.50263" gradientUnits="userSpaceOnUse">
<stop stop-color="#808080" stop-opacity="0.25"/>
<stop offset="0.54" stop-color="#808080" stop-opacity="0.12"/>
<stop offset="1" stop-color="#808080" stop-opacity="0.1"/>
</linearGradient>
<clipPath id="clip0">
<rect width="300" height="221.988" fill="white"/>
</clipPath>
</defs>
</svg>
