<svg width="300" height="180" viewBox="0 0 300 180" fill="none" xmlns="http://www.w3.org/2000/svg">
<g clip-path="url(#clip0)">
<path d="M229.687 177.33C225.846 174.084 223.513 168.958 224.125 163.967C224.737 158.975 228.526 154.387 233.442 153.327C238.357 152.267 243.96 155.201 245.453 160.003C246.275 150.746 247.222 141.1 252.144 133.217C256.6 126.079 264.319 120.971 272.685 120.057C281.05 119.143 289.858 122.594 295.075 129.197C300.293 135.8 301.57 145.399 297.916 152.98C295.224 158.564 290.265 162.72 285.069 166.101C268.278 176.934 248.141 181.34 228.361 178.507L229.687 177.33Z" fill="#F2F2F2"/>
<path d="M286.803 122.786C279.9 128.408 273.568 134.696 267.897 141.559C259.023 152.263 251.841 164.263 246.603 177.143C246.22 178.083 247.746 178.492 248.125 177.563C256.695 156.63 270.377 138.181 287.918 123.902C288.706 123.26 287.584 122.15 286.803 122.786Z" fill="white"/>
<path d="M96.5749 176.448C101.85 171.99 105.055 164.949 104.214 158.094C103.374 151.238 98.1691 144.936 91.4178 143.481C84.6664 142.025 76.9704 146.055 74.9198 152.65C73.7912 139.935 72.4908 126.687 65.7307 115.859C59.6096 106.054 49.0077 99.0389 37.5177 97.7838C26.0276 96.5288 13.9301 101.269 6.76416 110.338C-0.401757 119.407 -2.1563 132.591 2.86252 143.003C6.55971 150.673 13.3712 156.381 20.508 161.025C43.2768 175.841 71.5215 182.02 98.3967 178.065" fill="#F2F2F2"/>
<path d="M18.1264 101.532C27.6071 109.254 36.3047 117.891 44.0933 127.317C51.8831 136.733 58.7412 146.883 64.5712 157.624C67.8299 163.649 70.7573 169.847 73.3403 176.192C73.867 177.482 71.7714 178.044 71.2506 176.768C66.6755 165.583 61.0152 154.874 54.3509 144.793C47.719 134.749 40.1284 125.372 31.6858 116.793C26.9107 111.944 21.8724 107.361 16.594 103.064C15.5121 102.183 17.0534 100.658 18.1264 101.532L18.1264 101.532Z" fill="white"/>
<path d="M215.345 178.966H89.4827V49.8276C89.4827 22.3525 111.835 0 139.31 0H165.517C192.992 0 215.345 22.3525 215.345 49.8276V178.966Z" fill="#F2F2F2"/>
<path d="M189.138 178.966H89.4828V49.8276C89.4553 39.2998 92.789 29.038 98.9986 20.5364C99.2275 20.2244 99.4558 19.9165 99.6913 19.6119C102.695 15.6726 106.269 12.2033 110.296 9.3186C110.524 9.15308 110.752 8.99044 110.984 8.82779C114.354 6.49587 117.999 4.58956 121.836 3.15227C122.064 3.0659 122.296 2.97935 122.528 2.89634C125.999 1.65775 129.597 0.809315 133.255 0.366712C133.482 0.335729 133.715 0.311485 133.948 0.28724C137.513 -0.0939564 141.109 -0.0939564 144.674 0.28724C144.906 0.311485 145.139 0.335726 145.368 0.367044C149.026 0.809675 152.623 1.658 156.093 2.89636C156.325 2.97937 156.557 3.06591 156.785 3.15245C160.576 4.57161 164.178 6.44947 167.512 8.74411C167.743 8.90323 167.975 9.06588 168.203 9.22852C170.461 10.8398 172.581 12.6349 174.543 14.5954C176.116 16.168 177.582 17.8442 178.93 19.6129C179.165 19.9165 179.393 20.2245 179.622 20.536C185.832 29.0376 189.165 39.2996 189.138 49.8276V178.966Z" fill="#CCCCCC"/>
<path d="M181.034 121.207C184.081 121.207 186.552 118.737 186.552 115.69C186.552 112.643 184.081 110.172 181.034 110.172C177.987 110.172 175.517 112.643 175.517 115.69C175.517 118.737 177.987 121.207 181.034 121.207Z" fill="#2B386F"/>
<path d="M205.034 175.098H200.807L198.795 158.791L205.035 158.792L205.034 175.098Z" fill="#FFB8B8"/>
<path d="M197.787 173.89H205.94V179.023H192.653C192.653 178.349 192.786 177.681 193.044 177.059C193.302 176.436 193.68 175.87 194.157 175.393C194.634 174.917 195.199 174.538 195.822 174.28C196.445 174.022 197.113 173.89 197.787 173.89Z" fill="#2F2E41"/>
<path d="M226.069 175.098H221.841L219.83 158.791L226.069 158.792L226.069 175.098Z" fill="#FFB8B8"/>
<path d="M218.821 173.89H226.974V179.023H213.688C213.688 178.349 213.821 177.681 214.079 177.059C214.336 176.436 214.715 175.87 215.191 175.393C215.668 174.917 216.234 174.538 216.857 174.28C217.48 174.022 218.147 173.89 218.821 173.89Z" fill="#2F2E41"/>
<path d="M183.827 116.783C183.523 116.335 183.321 115.825 183.235 115.291C183.149 114.756 183.181 114.209 183.329 113.688C183.477 113.167 183.738 112.685 184.093 112.276C184.447 111.867 184.888 111.54 185.382 111.32L199.753 71.7103L206.825 75.5694L190.416 113.421C190.732 114.277 190.723 115.218 190.391 116.067C190.059 116.917 189.427 117.614 188.614 118.029C187.802 118.443 186.866 118.545 185.984 118.315C185.101 118.086 184.334 117.54 183.827 116.783Z" fill="#FFB8B8"/>
<path d="M223.909 124.225C223.439 123.956 223.034 123.587 222.722 123.144C222.411 122.701 222.2 122.195 222.105 121.662C222.01 121.129 222.033 120.582 222.172 120.058C222.311 119.535 222.564 119.049 222.911 118.633L218.459 76.7336L226.507 77.1013L228.357 118.315C229.016 118.946 229.421 119.796 229.495 120.704C229.568 121.613 229.306 122.518 228.758 123.246C228.21 123.975 227.413 124.477 226.52 124.657C225.626 124.838 224.697 124.684 223.909 124.225Z" fill="#FFB8B8"/>
<path d="M211.071 64.3737C215.748 64.3737 219.54 60.5819 219.54 55.9044C219.54 51.2269 215.748 47.4351 211.071 47.4351C206.393 47.4351 202.602 51.2269 202.602 55.9044C202.602 60.5819 206.393 64.3737 211.071 64.3737Z" fill="#FFB8B8"/>
<path d="M223.855 114.696H198.322L198.352 114.497C198.398 114.2 202.903 84.6909 199.58 75.0367C199.247 74.088 199.276 73.0495 199.663 72.1211C200.049 71.1927 200.765 70.44 201.673 70.0079H201.673C206.422 67.7716 215.538 65.0179 223.232 71.7007C224.364 72.7003 225.248 73.9496 225.814 75.3498C226.381 76.75 226.613 78.2627 226.494 79.7683L223.855 114.696Z" fill="#2B386F"/>
<path d="M203.226 89.052L191.73 86.7198L197.119 73.9509C197.441 72.7142 198.241 71.6558 199.343 71.008C200.444 70.3602 201.758 70.1758 202.996 70.4953C204.233 70.8147 205.293 71.612 205.944 72.7122C206.594 73.8123 206.782 75.1256 206.465 76.3639L203.226 89.052Z" fill="#2B386F"/>
<path d="M217.948 93.3822L217.257 77.5403C216.733 74.5623 218.438 71.7471 221.06 71.287C223.682 70.8285 226.243 72.8939 226.77 75.8938L229.367 90.6965L217.948 93.3822Z" fill="#2B386F"/>
<path d="M223.005 112.799C227.114 128.447 227.562 148.341 226.454 170.041L220.936 169.351L210.936 127.972L205.419 170.041L199.212 169.696C197.358 146.927 195.553 127.38 198.523 114.524L223.005 112.799Z" fill="#2F2E41"/>
<path d="M216.651 62.4497C215.071 64.1328 212.137 63.2293 211.931 60.93C211.915 60.7515 211.916 60.5718 211.935 60.3936C212.041 59.3751 212.629 58.4504 212.488 57.3751C212.457 57.1074 212.357 56.8524 212.199 56.6341C210.94 54.9481 207.984 57.3882 206.796 55.8619C206.067 54.9261 206.924 53.4525 206.365 52.4066C205.627 51.026 203.441 51.707 202.07 50.951C200.545 50.1098 200.636 47.7699 201.64 46.3466C202.865 44.6109 205.011 43.6847 207.131 43.5512C209.251 43.4177 211.356 43.9908 213.335 44.7621C215.584 45.6384 217.814 46.8495 219.198 48.8267C220.88 51.2313 221.042 54.464 220.201 57.2756C219.689 58.986 217.942 61.0753 216.651 62.4497Z" fill="#2F2E41"/>
<path d="M289.649 179.187H35.0647C34.956 179.187 34.8519 179.144 34.7751 179.067C34.6984 178.99 34.6553 178.885 34.6553 178.777C34.6553 178.668 34.6984 178.564 34.7751 178.487C34.8519 178.41 34.956 178.367 35.0647 178.366H289.649C289.757 178.367 289.862 178.41 289.938 178.487C290.015 178.564 290.058 178.668 290.058 178.777C290.058 178.885 290.015 178.99 289.938 179.067C289.862 179.144 289.757 179.187 289.649 179.187Z" fill="#3F3D56"/>
<path d="M161.724 141.552H116.897C116.306 141.555 115.739 141.324 115.319 140.909C114.898 140.494 114.66 139.93 114.655 139.34V39.2812C114.66 38.6908 114.898 38.1264 115.319 37.7116C115.739 37.2969 116.306 37.0658 116.897 37.069H161.724C162.315 37.0658 162.882 37.2969 163.302 37.7116C163.723 38.1264 163.961 38.6908 163.966 39.2812V139.34C163.961 139.93 163.723 140.494 163.302 140.909C162.882 141.324 162.315 141.555 161.724 141.552Z" fill="white"/>
<path d="M163.965 69.4447H114.655V70.1344H163.965V69.4447Z" fill="#CCCCCC"/>
<path d="M164.138 108.793H114.828V109.483H164.138V108.793Z" fill="#CCCCCC"/>
<path d="M130.862 37.069H130.172V141.897H130.862V37.069Z" fill="#CCCCCC"/>
<path d="M148.103 37.069H147.414V141.897H148.103V37.069Z" fill="#CCCCCC"/>
</g>
<defs>
<clipPath id="clip0">
<rect width="300" height="179.358" fill="white"/>
</clipPath>
</defs>
</svg>
