<svg width="300" height="184" viewBox="0 0 300 184" fill="none" xmlns="http://www.w3.org/2000/svg">
<g clip-path="url(#clip0)">
<path d="M140.828 183.55L140.45 183.157C140.525 183.085 147.965 175.8 150.8 162.185C153.419 149.613 152.534 128.915 133.451 101.703C125.477 90.333 120.039 79.5907 117.289 69.7745C115.041 61.7537 114.565 54.2974 115.875 47.6127C118.462 34.3965 127.258 28.5944 127.347 28.5374L127.642 28.9958C127.556 29.0517 118.943 34.7449 116.406 47.7345C113.496 62.6374 119.38 80.6897 133.897 101.39C142.374 113.477 148.017 125.313 150.669 136.57C152.794 145.587 153.015 154.255 151.327 162.331C148.45 176.098 140.904 183.477 140.828 183.55Z" fill="#F2F2F2"/>
<path d="M122.517 58.977C134.177 58.977 143.63 49.5244 143.63 37.8641C143.63 26.2037 134.177 16.7511 122.517 16.7511C110.856 16.7511 101.404 26.2037 101.404 37.8641C101.404 49.5244 110.856 58.977 122.517 58.977Z" fill="#F2F2F2"/>
<path d="M127.495 57.5334C121.805 57.5334 116.243 55.8462 111.513 52.6853C106.782 49.5244 103.095 45.0317 100.918 39.7753C98.7403 34.5189 98.1706 28.7348 99.2805 23.1546C100.39 17.5745 103.13 12.4487 107.153 8.42562C111.176 4.40252 116.302 1.66275 121.882 0.552769C127.462 -0.557212 133.246 0.0124513 138.503 2.18972C143.759 4.36699 148.252 8.05407 151.413 12.7847C154.574 17.5154 156.261 23.0771 156.261 28.7666C156.252 36.3934 153.219 43.7052 147.826 49.0982C142.433 54.4911 135.121 57.5247 127.495 57.5334ZM127.495 0.545468C121.913 0.545455 116.457 2.20059 111.816 5.30157C107.175 8.40255 103.557 12.8101 101.421 17.9669C99.2855 23.1236 98.7266 28.798 99.8155 34.2724C100.904 39.7467 103.592 44.7753 107.539 48.7221C111.486 52.6689 116.514 55.3567 121.989 56.4456C127.463 57.5346 133.138 56.9757 138.294 54.8397C143.451 52.7037 147.859 49.0865 150.96 44.4455C154.061 39.8045 155.716 34.3482 155.716 28.7666C155.707 21.2845 152.731 14.1113 147.441 8.82062C142.15 3.52996 134.977 0.553948 127.495 0.545468Z" fill="#F2F2F2"/>
<path d="M143.63 103.263C153.299 103.263 161.138 95.4241 161.138 85.7545C161.138 76.085 153.299 68.2462 143.63 68.2462C133.96 68.2462 126.122 76.085 126.122 85.7545C126.122 95.4241 133.96 103.263 143.63 103.263Z" fill="#F2F2F2"/>
<path d="M134.704 164.027C144.374 164.027 152.212 156.188 152.212 146.519C152.212 136.849 144.374 129.01 134.704 129.01C125.035 129.01 117.196 136.849 117.196 146.519C117.196 156.188 125.035 164.027 134.704 164.027Z" fill="#F2F2F2"/>
<path d="M208.206 31.0909H144.115V72.8182H208.206V31.0909Z" fill="#2B386F"/>
<path d="M293.722 183.545H234.365C234.365 183.545 233.162 165.899 240.281 165.698C247.4 165.498 246.597 173.519 255.521 162.49C264.444 151.461 275.273 152.062 276.677 158.58C278.08 165.097 273.97 170.31 281.489 168.706C289.009 167.102 299.838 171.313 293.722 183.545Z" fill="#F2F2F2"/>
<path d="M263.042 183.549L262.841 183.541C263.309 171.923 265.742 164.458 267.701 160.242C269.828 155.664 271.877 153.81 271.898 153.792L272.031 153.942C272.011 153.96 269.985 155.795 267.875 160.342C265.927 164.541 263.507 171.975 263.042 183.549Z" fill="white"/>
<path d="M284.524 183.573L284.332 183.517C285.825 178.593 288.515 174.116 292.163 170.488L292.298 170.636C288.677 174.24 286.006 178.685 284.524 183.573Z" fill="white"/>
<path d="M243.714 183.559L243.515 183.532C244.163 179.176 243.478 174.726 241.551 170.766C240.761 169.105 239.714 167.579 238.451 166.242L238.589 166.097C239.87 167.45 240.93 168.996 241.731 170.677C243.675 174.673 244.367 179.163 243.714 183.559Z" fill="white"/>
<path d="M23.3285 183.488L23.1916 183.207C23.1499 183.121 19.0494 174.55 21.3357 166.098C23.622 157.647 31.4846 152.311 31.5637 152.259L31.8236 152.085L31.9605 152.366C32.0021 152.451 36.1026 161.023 33.8163 169.474C31.5301 177.926 23.6674 183.262 23.5883 183.314L23.3285 183.488ZM31.6036 152.898C30.227 153.9 23.8586 158.861 21.8622 166.241C19.8643 173.626 22.8643 181.116 23.5485 182.675C24.9251 181.673 31.2934 176.712 33.2897 169.332C35.2878 161.946 32.2878 154.456 31.6036 152.898Z" fill="#3F3D56"/>
<path d="M12.7563 169.403C15.0423 177.854 22.8725 183.088 22.8725 183.088C22.8725 183.088 26.9964 174.62 24.7103 166.17C22.4243 157.719 14.594 152.485 14.594 152.485C14.594 152.485 10.4702 160.953 12.7563 169.403Z" fill="#2B386F"/>
<path d="M23.452 183.37L23.1398 183.353C23.0447 183.348 13.5609 182.763 7.28715 176.656C1.01363 170.549 0.174272 161.084 0.166548 160.989L0.141113 160.678L0.453258 160.695C0.548342 160.7 10.0321 161.285 16.3058 167.392C22.5795 173.499 23.4188 182.963 23.4265 183.059L23.452 183.37ZM0.745164 161.266C0.950906 162.955 2.1895 170.933 7.66775 176.265C13.146 181.598 21.1532 182.622 22.8479 182.782C22.6422 181.092 21.4036 173.115 15.9252 167.783C10.443 162.446 2.43905 161.425 0.745164 161.266Z" fill="#3F3D56"/>
<path d="M30.1938 167.587C23.9209 173.694 23.1547 183.081 23.1547 183.081C23.1547 183.081 32.5589 182.567 38.8319 176.461C45.1048 170.354 45.871 160.967 45.871 160.967C45.871 160.967 36.4668 161.481 30.1938 167.587Z" fill="#3F3D56"/>
<path d="M81.1939 114.678C74.921 120.785 74.1548 130.172 74.1548 130.172C74.1548 130.172 83.5591 129.658 89.832 123.552C96.105 117.445 96.8712 108.058 96.8712 108.058C96.8712 108.058 87.4669 108.572 81.1939 114.678Z" fill="#3F3D56"/>
<path d="M23.024 151.091C25.2834 151.091 27.1149 149.259 27.1149 147C27.1149 144.741 25.2834 142.909 23.024 142.909C20.7647 142.909 18.9331 144.741 18.9331 147C18.9331 149.259 20.7647 151.091 23.024 151.091Z" fill="#2B386F"/>
<path d="M72.6551 183.277L72.2771 182.884C72.3365 182.827 78.2377 177.047 80.4853 166.246C82.5611 156.27 81.8561 139.845 66.7096 118.248C55.093 101.683 50.392 87.2112 52.7375 75.2337C54.7979 64.7113 61.8056 60.0889 61.8761 60.0435L62.1716 60.5019C62.1031 60.5462 55.2791 65.0597 53.2694 75.3555C50.9616 87.1787 55.6338 101.504 67.1562 117.934C73.8947 127.543 78.3805 136.952 80.4891 145.902C82.1787 153.073 82.3547 159.967 81.0119 166.392C78.7227 177.345 72.7156 183.219 72.6551 183.277Z" fill="#3F3D56"/>
<path d="M69.9331 73.6364C97.0452 73.6364 119.024 69.8657 119.024 65.2144C119.024 60.5632 97.0452 56.7925 69.9331 56.7925C42.8209 56.7925 20.8422 60.5632 20.8422 65.2144C20.8422 69.8657 42.8209 73.6364 69.9331 73.6364Z" fill="#2B386F"/>
<path d="M60.7967 71.1818C26.7696 71.1818 0.114868 66.5097 0.114868 60.5454C0.114868 54.5811 26.7696 49.9091 60.7967 49.9091C94.8238 49.9091 121.479 54.5811 121.479 60.5454C121.479 66.5097 94.8238 71.1818 60.7967 71.1818ZM60.7967 50.4545C28.1994 50.4545 0.660323 55.0756 0.660323 60.5454C0.660323 66.0153 28.1994 70.6363 60.7967 70.6363C93.394 70.6363 120.933 66.0153 120.933 60.5454C120.933 55.0756 93.394 50.4545 60.7967 50.4545Z" fill="#3F3D56"/>
<path d="M74.586 19.212C74.586 19.212 67.3114 17.1629 65.1597 27.1014C63.0081 37.04 64.6474 42.0605 64.6474 42.0605L80.8872 40.165C80.8872 40.165 85.4979 22.2346 74.586 19.212Z" fill="#2F2E41"/>
<path d="M63.7022 62.2581C63.7022 62.2581 53.0315 63.3209 54.9321 67.6289C56.8327 71.9368 56.8327 72.317 56.8327 72.317L66.2089 89.0421L69.2498 85.8745C69.2498 85.8745 65.8288 78.3988 65.8288 75.9914C65.8288 73.584 62.281 69.4027 62.281 69.4027L68.4896 68.8959L63.7022 62.2581Z" fill="#A0616A"/>
<path d="M92.9436 67.3755L96.4914 75.1045C96.4914 75.1045 99.1522 77.7653 102.066 88.4086C104.981 99.0518 105.614 98.6717 105.614 98.6717L101.179 99.5586C101.179 99.5586 96.238 88.0285 94.5908 87.1415C92.9436 86.2546 90.9163 78.1454 90.9163 78.1454L85.0879 70.7965L86.8618 66.8687L92.9436 67.3755Z" fill="#A0616A"/>
<path d="M88.6357 58.5061L94.0841 68.6425C94.0841 68.6425 87.242 65.4749 86.2283 72.4437L80.0197 67.6289C80.0197 67.6289 71.4038 70.4164 66.2089 69.4027C66.2089 69.4027 67.7293 64.5879 62.281 62.4339L74.5714 60.9135L74.0646 58.2527L75.3317 55.7186L88.6357 58.5061Z" fill="#2F2E41"/>
<path d="M66.969 86.7614C66.969 86.7614 63.548 86.2546 64.4349 89.2955L66.2088 95.3774C66.2088 95.3774 63.9281 101.586 67.4759 100.192C71.0236 98.7984 73.3043 90.1824 73.3043 90.1824C73.3043 90.1824 74.8248 83.5938 73.3043 83.5938C71.7839 83.5938 66.969 82.5801 67.4759 83.5938C67.9827 84.6074 66.969 86.7614 66.969 86.7614Z" fill="#2F2E41"/>
<path d="M105.234 96.8979C105.234 96.8979 100.799 95.7575 99.7857 97.5314C98.7721 99.3053 99.0255 105.134 99.0255 105.26C99.0255 105.387 100.546 106.654 101.053 106.654C101.56 106.654 104.727 112.356 109.035 110.329C113.343 108.301 105.234 96.8979 105.234 96.8979Z" fill="#2F2E41"/>
<path d="M73.3043 34.6855C76.0334 34.6855 78.2458 32.4731 78.2458 29.7439C78.2458 27.0148 76.0334 24.8024 73.3043 24.8024C70.5752 24.8024 68.3628 27.0148 68.3628 29.7439C68.3628 32.4731 70.5752 34.6855 73.3043 34.6855Z" fill="#A0616A"/>
<path d="M77.3591 30.7576C77.3591 30.7576 78.3728 36.0793 79.2597 36.8395C80.1466 37.5997 72.5443 38.7401 72.5443 38.7401C72.5443 38.7401 73.6847 35.0656 72.2909 33.165C70.8971 31.2644 77.3591 30.7576 77.3591 30.7576Z" fill="#A0616A"/>
<path d="M90.663 60.9135C89.8001 60.9135 87.603 60.5562 85.1399 60.0963C83.0087 59.6984 80.676 59.2258 78.8363 58.8432C76.866 58.4326 75.4583 58.126 75.4583 58.126C75.4583 58.126 74.9515 61.2936 73.3043 60.9135C71.8852 60.5866 67.6444 45.7735 66.4977 41.6796C66.4139 41.3807 66.4301 41.0626 66.5437 40.7737C66.6574 40.4848 66.8624 40.241 67.1274 40.0794L72.9521 36.5227L74.4447 37.0929C74.4447 37.0929 76.9661 35.1442 78.4295 35.1049C79.893 35.0656 82.4271 34.6855 82.4271 34.6855C82.4271 34.6855 85.3413 34.9389 85.8482 37.0929C86.355 39.2469 86.6084 52.6777 88.509 55.0851C90.4096 57.4925 93.0704 60.9135 90.663 60.9135Z" fill="#D0CDE1"/>
<path d="M72.9243 68.009C72.9243 68.009 72.9243 72.9505 76.2187 72.1903C79.513 71.4301 76.4721 66.8687 76.4721 66.8687L72.9243 68.009Z" fill="#A0616A"/>
<path d="M82.0472 68.5158C82.0472 68.5158 80.9068 74.3443 78.4994 73.4573C76.092 72.5704 78.4994 67.3755 78.4994 67.3755L82.0472 68.5158Z" fill="#A0616A"/>
<path opacity="0.15" d="M87.3688 54.7049C87.3688 54.7049 86.1283 57.6647 85.14 60.0962C83.0089 59.6984 80.6762 59.2257 78.8364 58.8431C78.9686 58.4932 79.1541 58.1658 79.3863 57.8725C80.2733 56.8589 79.7665 56.6055 79.7665 56.6055C79.0062 55.085 79.6397 53.0577 79.6397 53.0577C78.1193 49.0032 80.4 43.9349 80.4 43.9349L87.3688 54.7049Z" fill="black"/>
<path d="M80.7799 43.935C80.7799 43.935 78.4993 49.0032 80.0197 53.0577C80.0197 53.0577 79.3862 55.085 80.1464 56.6055C80.1464 56.6055 80.6532 56.8589 79.7663 57.8726C78.8794 58.8862 78.1191 62.4339 78.7527 63.1942C79.3862 63.9544 77.8657 65.3482 78.2458 66.1084C78.626 66.8686 77.6123 67.8823 77.6123 67.8823C77.6123 67.8823 81.4135 68.6425 82.047 69.7829C82.047 69.7829 82.8072 68.8959 82.4271 67.8823C82.047 66.8686 82.3004 66.4885 82.6805 65.855C83.0606 65.2215 84.201 63.8277 84.3277 63.1942C84.4544 62.5606 87.7487 54.7049 87.7487 54.7049L86.2038 40.389L80.7799 43.935Z" fill="#D0CDE1"/>
<path d="M67.6026 40.3872L67.3659 40.4302C67.0358 40.4901 66.7375 40.6645 66.5235 40.9228C66.3094 41.1811 66.1934 41.5066 66.1958 41.842C66.2049 43.1142 66.2765 45.3719 66.589 48.4964C67.0958 53.5646 68.8697 61.1669 69.2498 61.9271C69.8534 63.2724 70.5302 64.5836 71.2771 65.855C72.4174 67.7556 72.6708 67.122 72.4174 68.009C72.3403 68.2533 72.3352 68.5146 72.4026 68.7618C72.47 69.0089 72.6071 69.2314 72.7975 69.4027C72.7975 69.4027 75.0782 66.8686 77.3589 68.2624C77.522 67.9041 77.6083 67.5157 77.6123 67.1221C77.6123 66.4885 77.9924 65.855 77.3589 65.4749C76.7254 65.0948 77.739 63.4476 76.7254 62.5607C75.7118 61.6737 75.5851 61.8004 75.7118 60.9135C75.7709 60.3104 75.684 59.702 75.4583 59.1396L67.6026 40.3872Z" fill="#D0CDE1"/>
<path d="M75.1518 23.3963C75.1518 23.3963 73.1026 28.8267 68.0821 31.0808L67.2625 26.2652L75.1518 23.3963Z" fill="#2F2E41"/>
<path d="M78.1192 29.1738C78.5041 29.1738 78.8161 28.5782 78.8161 27.8434C78.8161 27.1086 78.5041 26.513 78.1192 26.513C77.7344 26.513 77.4224 27.1086 77.4224 27.8434C77.4224 28.5782 77.7344 29.1738 78.1192 29.1738Z" fill="#A0616A"/>
<path d="M221.404 97.871C226.292 97.871 230.255 93.9082 230.255 89.0198C230.255 84.1314 226.292 80.1686 221.404 80.1686C216.515 80.1686 212.552 84.1314 212.552 89.0198C212.552 93.9082 216.515 97.871 221.404 97.871Z" fill="#2F2E41"/>
<path d="M220.221 80.3347C221.845 80.3347 223.161 79.0184 223.161 77.3946C223.161 75.7709 221.845 74.4545 220.221 74.4545C218.598 74.4545 217.281 75.7709 217.281 77.3946C217.281 79.0184 218.598 80.3347 220.221 80.3347Z" fill="#2F2E41"/>
<path d="M216.913 79.2155C216.46 78.6449 216.235 77.9265 216.281 77.1994C216.328 76.4723 216.642 75.7884 217.164 75.2801C217.082 75.333 217.002 75.3903 216.924 75.4522C216.621 75.6924 216.369 75.9897 216.182 76.3273C215.994 76.6649 215.875 77.0361 215.831 77.4196C215.787 77.8032 215.819 78.1917 215.926 78.5629C216.032 78.9341 216.21 79.2808 216.45 79.5831C216.69 79.8855 216.988 80.1375 217.325 80.3249C217.663 80.5123 218.034 80.6314 218.418 80.6754C218.801 80.7193 219.19 80.6873 219.561 80.5811C219.932 80.4749 220.279 80.2967 220.581 80.0565C220.659 79.9945 220.733 79.9293 220.803 79.861C220.19 80.2545 219.453 80.4063 218.734 80.2871C218.015 80.1678 217.366 79.7859 216.913 79.2155Z" fill="#2F2E41"/>
<path d="M206.906 121.028L201.783 125.363C201.783 125.363 194.098 127.728 197.842 130.289C201.586 132.85 203.753 127.136 203.753 127.136L210.058 123.196L206.906 121.028Z" fill="#FFB9B9"/>
<path d="M217.94 102.113L217.349 101.719C217.349 101.719 214.984 101.719 214.59 104.083C214.196 106.448 213.014 111.373 213.014 111.373C213.014 111.373 209.073 113.738 209.467 118.073L205.33 121.619C205.33 121.619 210.256 123.196 209.27 124.575L216.561 117.876L216.758 105.068L217.94 102.113Z" fill="#2F2E41"/>
<path d="M220.304 97.5809C223.134 97.5809 225.427 95.2873 225.427 92.4579C225.427 89.6286 223.134 87.335 220.304 87.335C217.475 87.335 215.181 89.6286 215.181 92.4579C215.181 95.2873 217.475 97.5809 220.304 97.5809Z" fill="#FFB9B9"/>
<path d="M218.728 96.0046C218.728 96.0046 221.881 99.5512 219.91 101.522C217.94 103.492 217.349 113.147 217.349 113.147L226.018 99.9453C226.018 99.9453 223.654 95.2164 223.851 93.6401L218.728 96.0046Z" fill="#FFB9B9"/>
<path d="M218.137 109.797C218.137 109.797 222.866 99.4107 225.427 98.6928L232.127 100.339C232.127 100.339 226.807 118.664 227.398 120.437C227.989 122.21 231.339 124.772 230.156 140.338C230.156 140.338 245.328 168.12 241.584 172.849C237.841 177.578 223.851 181.125 223.654 179.745C223.457 178.366 217.152 157.086 218.137 150.584C218.137 150.584 218.137 178.76 216.955 179.351C215.773 179.942 196.857 184.277 197.448 180.928C198.039 177.578 207.497 140.732 207.497 140.732L214.787 117.876L214.984 114.526C214.984 114.526 211.832 112.359 214.196 107.433C216.561 102.507 217.349 101.719 217.349 101.719L220.188 101.186C220.188 101.186 217.546 108.418 218.137 109.797Z" fill="#2F2E41"/>
<path d="M228.777 124.575L226.413 129.698C226.413 129.698 220.304 136.2 224.639 136.397C228.974 136.594 229.368 130.486 229.368 130.486L232.521 124.575H228.777Z" fill="#FFB9B9"/>
<path d="M229.565 100.536H232.127C232.127 100.536 232.915 99.3542 233.703 104.28C234.491 109.206 234.097 116.693 234.097 116.693L232.915 126.545C232.915 126.545 228.777 124.969 227.792 125.363C226.807 125.757 227.792 125.166 227.792 125.166L229.565 118.467L227.398 108.812L229.565 100.536Z" fill="#2F2E41"/>
<path d="M219.786 84.904C216.44 85.8132 214.157 88.1327 214.687 90.0846C214.925 90.958 215.687 91.6081 216.754 91.9802L217.691 90.8182L217.734 92.2284C217.882 92.2536 218.032 92.2761 218.187 92.2926L219.377 89.7862L220.056 92.2836C220.614 92.2241 221.166 92.1201 221.707 91.9727C225.053 91.0635 227.335 88.7441 226.805 86.7921C226.275 84.8402 223.132 83.9948 219.786 84.904Z" fill="#2F2E41"/>
<path d="M225.526 92.3594C225.852 92.3594 226.117 91.9183 226.117 91.3742C226.117 90.8301 225.852 90.389 225.526 90.389C225.199 90.389 224.935 90.8301 224.935 91.3742C224.935 91.9183 225.199 92.3594 225.526 92.3594Z" fill="#FFB9B9"/>
<path d="M205.478 183.545C208.039 183.545 210.115 182.63 210.115 181.5C210.115 180.37 208.039 179.455 205.478 179.455C202.918 179.455 200.842 180.37 200.842 181.5C200.842 182.63 202.918 183.545 205.478 183.545Z" fill="#2F2E41"/>
<path d="M230.645 182.571C233.839 181.312 235.981 179.156 235.428 177.754C234.876 176.353 231.839 176.238 228.644 177.497C225.45 178.756 223.309 180.912 223.861 182.314C224.413 183.715 227.45 183.83 230.645 182.571Z" fill="#2F2E41"/>
<path d="M199.335 127.709C199.254 127.689 191.165 125.631 188.088 117.453C184.58 108.133 188.704 94.9897 200.346 78.3888C214.566 58.1123 215.338 51.2993 213.482 49.1544C211.134 46.4412 203.766 50.1151 203.693 50.1525L203.446 49.6656C203.765 49.5048 211.269 45.7639 213.894 48.7971C216.779 52.1303 212.371 62.1916 200.793 78.702C194.484 87.6979 190.36 95.7726 188.537 102.702C187.058 108.32 187.078 113.215 188.595 117.253C191.567 125.161 199.386 127.16 199.464 127.179L199.335 127.709Z" fill="#3F3D56"/>
<path d="M203.842 66.2727H135.388V21.5454H203.842V66.2727ZM135.933 65.7272H203.297V22.0909H135.933V65.7272Z" fill="#3F3D56"/>
<path d="M163.897 49.8414C165.483 49.8414 166.769 48.5553 166.769 46.9688C166.769 45.3823 165.483 44.0962 163.897 44.0962C162.31 44.0962 161.024 45.3823 161.024 46.9688C161.024 48.5553 162.31 49.8414 163.897 49.8414Z" fill="#3F3D56"/>
<path d="M188.424 49.8414C190.011 49.8414 191.297 48.5553 191.297 46.9688C191.297 45.3823 190.011 44.0962 188.424 44.0962C186.838 44.0962 185.552 45.3823 185.552 46.9688C185.552 48.5553 186.838 49.8414 188.424 49.8414Z" fill="#3F3D56"/>
<path d="M188.424 58.6801C188.424 59.5344 182.884 61.9947 176.05 61.9947C169.216 61.9947 163.676 59.5344 163.676 58.6801C163.676 57.8259 169.216 58.9011 176.05 58.9011C182.884 58.9011 188.424 57.8259 188.424 58.6801Z" fill="#3F3D56"/>
<path d="M300 183.15H0V183.696H300V183.15Z" fill="#3F3D56"/>
</g>
<defs>
<clipPath id="clip0">
<rect width="300" height="183.696" fill="white"/>
</clipPath>
</defs>
</svg>
