<svg width="300" height="148" viewBox="0 0 300 148" fill="none" xmlns="http://www.w3.org/2000/svg">
<g clip-path="url(#clip0)">
<path d="M299.963 145.615C302.044 147.501 215.325 147.501 217.412 145.615C215.331 143.73 302.051 143.73 299.963 145.615Z" fill="#E6E6E6"/>
<path d="M271.178 90.5713C275.768 97.0524 276.98 133.939 277.251 145.763C277.258 146.029 277.264 146.282 277.268 146.52H288.886C289.028 146.268 289.159 146.019 289.284 145.763C296.17 132.185 292.35 115.904 292.149 115.08C292.672 117.669 290.306 125.171 287.632 132.437C286 110.094 272.051 91.6993 271.178 90.5713Z" fill="#E6E6E6"/>
<path d="M52.9574 18.4731C43.8621 31.3167 41.4596 104.415 40.9241 127.846C40.9104 128.374 40.8967 128.875 40.8898 129.348H17.8667C17.5852 128.847 17.3244 128.354 17.0773 127.846C3.43092 100.938 11.0023 68.675 11.4004 67.043C10.364 72.1722 15.0523 87.0387 20.3516 101.439C23.5847 57.1617 51.2275 20.7086 52.9574 18.4731Z" fill="#E6E6E6"/>
<path d="M159.91 128.591C163.94 133.236 -3.9706 133.236 0.0718439 128.59C-3.95838 123.947 163.952 123.947 159.91 128.591Z" fill="#E6E6E6"/>
<path d="M246.617 125.99C245.972 125.99 245.959 127.998 246.617 127.997H270.727C271.009 128.007 271.242 127.564 271.247 127.01C271.252 126.444 271.015 125.979 270.727 125.99H246.617Z" fill="#3F3D56"/>
<path d="M254.23 118.511C253.393 118.511 253.388 120.519 254.23 120.519H263.106C263.469 120.528 263.769 120.086 263.775 119.532C263.782 118.966 263.477 118.501 263.106 118.511H254.23Z" fill="#2B386F"/>
<path d="M246.617 133.745C245.972 133.745 245.959 135.753 246.617 135.753H270.727C271.009 135.762 271.242 135.32 271.247 134.765C271.252 134.199 271.015 133.735 270.727 133.745H246.617Z" fill="#3F3D56"/>
<path d="M275.878 108.575H241.497C241.13 108.575 240.777 108.721 240.517 108.98C240.257 109.24 240.111 109.592 240.111 109.96V144.305C240.111 144.672 240.257 145.024 240.517 145.284C240.777 145.543 241.13 145.689 241.497 145.69H275.878C276.246 145.689 276.598 145.543 276.858 145.284C277.118 145.024 277.264 144.672 277.264 144.305V109.96C277.264 109.592 277.118 109.24 276.858 108.98C276.598 108.721 276.246 108.575 275.878 108.575ZM276.71 144.305C276.709 144.525 276.621 144.736 276.465 144.891C276.31 145.047 276.098 145.135 275.878 145.136H241.497C241.277 145.135 241.066 145.047 240.91 144.891C240.754 144.736 240.666 144.525 240.665 144.305V109.96C240.666 109.739 240.754 109.528 240.91 109.373C241.066 109.217 241.277 109.129 241.497 109.129H275.878C276.098 109.129 276.31 109.217 276.465 109.373C276.621 109.528 276.709 109.739 276.71 109.96V144.305Z" fill="#3F3D56"/>
<path d="M228.397 81.3126L231.186 79.9194L228.862 73.6503L228.249 70.4887C228.17 70.078 227.984 69.6953 227.71 69.3789C227.436 69.0625 227.083 68.8235 226.688 68.6858C226.292 68.548 225.868 68.5164 225.456 68.594C225.045 68.6716 224.661 68.8557 224.343 69.128C223.872 69.5315 223.576 70.102 223.518 70.7193C223.46 71.3365 223.644 71.9522 224.031 72.4363L226.305 75.2756L228.397 81.3126Z" fill="#A0616A"/>
<path d="M227.467 80.616L227.981 82.2245L230.29 89.45C230.516 90.1584 230.941 90.7866 231.516 91.2593C232.09 91.7319 232.789 92.0289 233.528 92.1147C234.268 92.2005 235.016 92.0714 235.684 91.7429C236.351 91.4144 236.91 90.9004 237.293 90.2626L244.777 77.4492C244.896 77.2495 244.998 77.0398 245.082 76.8225C245.443 75.8743 245.425 74.8233 245.032 73.888C244.638 72.9527 243.898 72.2049 242.967 71.8002C242.035 71.3954 240.983 71.3648 240.03 71.7147C239.076 72.0645 238.294 72.7679 237.847 73.6787L233.278 83.4026L231.187 78.7589L227.467 80.616Z" fill="#E6E6E6"/>
<path d="M228.544 127.29L233.657 127.754L236.446 107.554C245.64 109.099 254.314 109.594 261.816 107.725C262.45 107.569 263.045 107.284 263.564 106.888C264.082 106.491 264.513 105.992 264.829 105.422C265.145 104.851 265.34 104.221 265.401 103.572C265.462 102.923 265.388 102.268 265.183 101.648C264.285 98.9712 262.703 96.1025 260.852 93.1582L248.533 97.5698L248.068 99.4273L234.928 97.7658C234.265 97.6819 233.591 97.7368 232.95 97.927C232.309 98.1172 231.714 98.4385 231.204 98.8706C230.694 99.3027 230.279 99.836 229.986 100.437C229.694 101.038 229.529 101.693 229.504 102.36L228.544 127.29Z" fill="#2F2E41"/>
<path d="M222.975 131.204C222.926 130.859 222.977 130.506 223.122 130.189C223.267 129.871 223.5 129.602 223.793 129.412L229.042 126.839L233 127.338L233.934 130.685C233.974 130.924 233.965 131.168 233.907 131.403C233.849 131.637 233.744 131.858 233.598 132.051C233.452 132.243 233.268 132.404 233.058 132.524C232.848 132.644 232.615 132.719 232.375 132.746L224.99 132.763C224.517 132.816 224.042 132.683 223.666 132.392C223.29 132.101 223.042 131.675 222.975 131.204Z" fill="#2F2E41"/>
<path d="M227.252 124.707L232.365 125.172L235.155 104.971C244.349 106.516 253.022 107.011 260.525 105.142C261.159 104.986 261.753 104.701 262.272 104.305C262.79 103.909 263.221 103.409 263.537 102.839C263.853 102.268 264.048 101.638 264.109 100.989C264.17 100.34 264.096 99.6848 263.891 99.0655C262.993 96.3885 261.412 93.5198 259.56 90.5754L247.241 94.987L246.776 96.8445L233.637 95.183C232.973 95.0991 232.299 95.154 231.658 95.3442C231.017 95.5344 230.422 95.8557 229.912 96.2878C229.402 96.7199 228.987 97.2532 228.695 97.854C228.402 98.4547 228.237 99.1097 228.212 99.7774L227.252 124.707Z" fill="#2F2E41"/>
<path d="M221.683 128.621C221.634 128.276 221.685 127.923 221.83 127.606C221.975 127.288 222.208 127.019 222.502 126.83L227.751 124.256L231.708 124.755L232.643 128.103C232.682 128.341 232.673 128.585 232.615 128.82C232.557 129.054 232.452 129.275 232.306 129.468C232.16 129.661 231.976 129.822 231.766 129.941C231.556 130.061 231.323 130.137 231.083 130.164L223.698 130.18C223.225 130.233 222.751 130.1 222.374 129.809C221.998 129.518 221.75 129.092 221.683 128.621Z" fill="#2F2E41"/>
<path d="M236.549 69.4462C240.015 69.4462 242.825 66.6394 242.825 63.1771C242.825 59.7147 240.015 56.908 236.549 56.908C233.083 56.908 230.274 59.7147 230.274 63.1771C230.274 66.6394 233.083 69.4462 236.549 69.4462Z" fill="#A0616A"/>
<path d="M236.782 75.9474L243.987 75.0187L241.198 66.4277H234.225L236.782 75.9474Z" fill="#A0616A"/>
<path d="M234.821 84.6099C235.186 85.6239 235.716 86.571 236.389 87.4133C237.348 88.5894 238.501 89.5939 239.797 90.3837C240.023 90.5299 240.258 90.6699 240.5 90.8077L241.884 91.9859L246.775 96.147L260.257 91.0396C257.283 84.4387 253.574 79.2205 249.322 75.0176C248.439 73.7236 247.18 72.731 245.715 72.1738C244.25 71.6165 242.649 71.5213 241.127 71.901L236.084 73.1606C234.29 77.3906 233.623 81.2802 234.821 84.6099Z" fill="#E6E6E6"/>
<path d="M223.839 66.5457C223.76 66.4683 223.657 66.4201 223.548 66.4093C223.438 66.3985 223.327 66.4257 223.235 66.4863C223.112 66.6164 219.074 69.0063 219.327 69.2434C219.32 69.3153 219.328 69.388 219.353 69.4561C219.377 69.5242 219.416 69.586 219.468 69.6369L228.851 78.9697C228.896 79.0151 228.951 79.051 229.01 79.0753C229.07 79.0995 229.134 79.1117 229.198 79.111C229.387 79.352 232.462 75.8509 232.617 75.7839C232.706 75.6915 232.755 75.5679 232.753 75.4399C232.751 75.3118 232.699 75.1897 232.607 75.1L223.839 66.5457Z" fill="#3F3D56"/>
<path d="M220.272 69.1439L220.654 68.9007C220.616 68.9724 220.603 69.0546 220.617 69.1346C220.631 69.2145 220.671 69.2876 220.731 69.3423C220.791 69.397 220.867 69.4302 220.948 69.4366C221.029 69.443 221.11 69.4224 221.178 69.3779L223.649 67.6809C223.704 67.6418 223.748 67.5882 223.774 67.526C223.801 67.4638 223.81 67.3954 223.8 67.3285C223.79 67.2615 223.761 67.1987 223.718 67.1469C223.674 67.0951 223.617 67.0564 223.553 67.0351C223.651 67.002 223.809 66.8035 223.915 66.9284L232.227 75.0887C232.523 75.2327 229.207 78.1036 229.205 78.2164C228.958 78.4921 220.431 69.3554 220.25 69.3491C220.236 69.335 220.225 69.318 220.219 69.2994C220.212 69.2807 220.21 69.2608 220.212 69.2411C220.214 69.2214 220.221 69.2025 220.231 69.1856C220.242 69.1688 220.256 69.1546 220.272 69.1439Z" fill="white"/>
<path d="M229.866 73.2869L227.316 75.6885L221.251 69.7025L224.329 67.7008L229.866 73.2869Z" fill="#2B386F"/>
<path d="M221.487 71.1796C221.632 71.0736 220.984 70.6026 220.956 70.5251C220.939 70.509 220.917 70.5001 220.894 70.5001C220.871 70.5001 220.848 70.5091 220.831 70.5251C220.686 70.6311 221.334 71.1021 221.362 71.1796C221.379 71.1957 221.401 71.2046 221.424 71.2046C221.447 71.2046 221.47 71.1956 221.487 71.1796Z" fill="#E6E6E6"/>
<path d="M222.38 71.9476C222.3 71.9181 221.833 71.2742 221.725 71.4177C221.58 71.5237 222.227 71.9947 222.255 72.0723C222.335 72.154 222.462 72.0274 222.38 71.9476Z" fill="#E6E6E6"/>
<path d="M229.212 75.3483C229.2 76.1204 230.414 76.1204 230.403 75.3483C230.414 74.5763 229.2 74.5763 229.212 75.3483Z" fill="#2B386F"/>
<path opacity="0.2" d="M236.389 87.4133C237.348 88.5894 238.501 89.5939 239.798 90.3837C240.023 90.53 240.258 90.6699 240.5 90.8078L241.885 91.986C244.632 88.3784 244.478 77.4178 244.478 77.4178L240.295 77.8356L236.389 87.4133Z" fill="black"/>
<path d="M228.182 84.5385L230.971 83.1454L228.647 76.8763L228.034 73.7147C227.955 73.3039 227.768 72.9213 227.494 72.6049C227.22 72.2885 226.868 72.0495 226.473 71.9117C226.077 71.774 225.652 71.7423 225.241 71.8199C224.829 71.8975 224.445 72.0817 224.127 72.3539C223.656 72.7574 223.36 73.328 223.302 73.9452C223.244 74.5625 223.428 75.1782 223.816 75.6623L226.09 78.5016L228.182 84.5385Z" fill="#A0616A"/>
<path d="M230.971 81.9844L227.252 83.8419L230.074 92.6758C230.277 93.3101 230.64 93.8814 231.129 94.3342C231.618 94.7871 232.215 95.106 232.864 95.2603C233.663 95.4505 234.503 95.3813 235.26 95.0628C236.018 94.7444 236.654 94.1931 237.077 93.4891L244.561 80.6749C245.091 79.7919 245.255 78.7367 245.017 77.7348C244.779 76.7329 244.158 75.8636 243.287 75.3126C242.819 75.0163 242.293 74.8218 241.745 74.7418C241.196 74.6618 240.637 74.6981 240.103 74.8483C239.57 74.9986 239.074 75.2593 238.648 75.6137C238.222 75.9681 237.875 76.4081 237.631 76.9051L233.063 86.6282L230.971 81.9844Z" fill="#E6E6E6"/>
<path d="M234.187 60.7353C233.676 61.1614 233.098 61.5016 232.478 61.7429C232.167 61.8614 231.833 61.9104 231.501 61.8866C231.168 61.8627 230.845 61.7666 230.554 61.6049C230.235 61.3758 229.983 61.0652 229.825 60.7055C229.667 60.3459 229.609 59.9505 229.656 59.5606C229.763 58.7805 230.076 58.0432 230.565 57.4253C231.407 56.2549 232.515 55.3001 233.797 54.6389C235.079 53.9778 236.5 53.629 237.943 53.621C239.386 53.613 240.81 53.9461 242.1 54.5931C243.39 55.2401 244.508 56.1826 245.363 57.3436C245.986 58.121 246.37 59.0629 246.466 60.0543C246.556 61.7959 245.363 63.4217 245.491 65.161C245.598 66.6321 246.655 67.8922 247.907 68.6744C249.159 69.4566 250.606 69.8531 252.005 70.3229C253.405 70.7926 254.821 71.3722 255.857 72.4232C256.892 73.4743 257.464 75.1053 256.895 76.4665C256.428 77.585 255.318 78.2964 254.204 78.7781C251.219 80.0551 247.866 80.1809 244.793 79.131C243.66 78.7387 242.423 77.9537 242.406 76.7561C242.398 76.2363 242.632 75.7483 242.773 75.2478C242.914 74.7472 242.94 74.1503 242.587 73.768C242.15 73.294 241.341 73.4032 240.819 73.7812C240.296 74.1593 239.956 74.7328 239.525 75.2124C238.706 76.1231 237.464 76.7048 236.251 76.5333C235.038 76.3618 233.941 75.3292 233.891 74.1061C233.804 72.0049 236.44 70.6894 236.726 68.606C236.917 67.2146 236.011 65.9416 235.225 64.7769C234.439 63.6123 233.708 62.1531 234.258 60.8605" fill="#2F2E41"/>
<path d="M146.737 127.715H43.1898C42.6814 127.714 42.194 127.512 41.8345 127.153C41.475 126.794 41.2728 126.307 41.2722 125.799V37.3445C41.2728 36.8367 41.475 36.3498 41.8345 35.9907C42.194 35.6316 42.6814 35.4296 43.1898 35.429H146.737C147.246 35.4295 147.733 35.6316 148.093 35.9907C148.452 36.3498 148.654 36.8367 148.655 37.3445V125.799C148.654 126.307 148.452 126.794 148.093 127.153C147.733 127.512 147.246 127.714 146.737 127.715ZM43.1898 36.1952C42.8847 36.1955 42.5923 36.3167 42.3766 36.5322C42.1609 36.7476 42.0396 37.0398 42.0392 37.3445V125.799C42.0396 126.104 42.1609 126.396 42.3766 126.612C42.5923 126.827 42.8847 126.948 43.1898 126.949H146.737C147.042 126.948 147.335 126.827 147.551 126.612C147.766 126.396 147.888 126.104 147.888 125.799V37.3445C147.888 37.0398 147.766 36.7476 147.551 36.5322C147.335 36.3167 147.042 36.1955 146.737 36.1952H43.1898Z" fill="#3F3D56"/>
<path d="M59.2791 119.788C63.593 119.788 67.0901 116.295 67.0901 111.985C67.0901 107.676 63.593 104.182 59.2791 104.182C54.9651 104.182 51.468 107.676 51.468 111.985C51.468 116.295 54.9651 119.788 59.2791 119.788Z" fill="#E6E6E6"/>
<path d="M77.3187 106.783C76.9738 106.784 76.6432 106.921 76.3994 107.165C76.1557 107.409 76.0188 107.739 76.0188 108.084C76.0188 108.428 76.1557 108.759 76.3994 109.003C76.6432 109.247 76.9738 109.384 77.3187 109.384H138.691C139.037 109.384 139.368 109.247 139.612 109.003C139.856 108.76 139.993 108.429 139.993 108.084C139.993 107.739 139.856 107.408 139.612 107.164C139.368 106.92 139.037 106.783 138.691 106.783H77.3187Z" fill="#E6E6E6"/>
<path d="M77.3189 114.586C76.9737 114.586 76.6425 114.723 76.3984 114.967C76.1542 115.211 76.0171 115.542 76.0171 115.887C76.0171 116.232 76.1542 116.562 76.3984 116.806C76.6425 117.05 76.9737 117.187 77.3189 117.187H103.728C103.899 117.187 104.068 117.154 104.227 117.089C104.385 117.023 104.528 116.928 104.65 116.807C104.771 116.686 104.867 116.543 104.932 116.385C104.998 116.227 105.031 116.058 105.031 115.887C105.031 115.716 104.998 115.546 104.932 115.389C104.867 115.231 104.771 115.087 104.65 114.966C104.528 114.846 104.385 114.75 104.227 114.685C104.068 114.619 103.899 114.586 103.728 114.586H77.3189Z" fill="#E6E6E6"/>
<path d="M171.339 96.8629H67.7916C67.2832 96.8623 66.7958 96.6603 66.4363 96.3012C66.0768 95.9421 65.8746 95.4552 65.874 94.9474V49.5525C65.8746 49.0447 66.0768 48.5578 66.4363 48.1987C66.7958 47.8396 67.2832 47.6376 67.7916 47.637H171.339C171.848 47.6376 172.335 47.8396 172.694 48.1987C173.054 48.5578 173.256 49.0447 173.257 49.5525V94.9474C173.256 95.4552 173.054 95.9421 172.694 96.3012C172.335 96.6603 171.848 96.8623 171.339 96.8629Z" fill="#2B386F"/>
<path d="M88.879 63.4596C88.5341 63.4601 88.2035 63.5973 87.9597 63.8412C87.716 64.085 87.5791 64.4155 87.5791 64.7601C87.5791 65.1047 87.716 65.4352 87.9597 65.679C88.2035 65.9228 88.5341 66.0601 88.879 66.0606H150.252C150.597 66.0601 150.927 65.9228 151.171 65.679C151.415 65.4352 151.552 65.1047 151.552 64.7601C151.552 64.4155 151.415 64.085 151.171 63.8412C150.927 63.5973 150.597 63.4601 150.252 63.4596H88.879Z" fill="white"/>
<path d="M88.879 70.9951C88.5341 70.9956 88.2035 71.1329 87.9597 71.3767C87.716 71.6205 87.5791 71.951 87.5791 72.2956C87.5791 72.6402 87.716 72.9707 87.9597 73.2145C88.2035 73.4584 88.5341 73.5956 88.879 73.5961H150.252C150.597 73.5956 150.927 73.4584 151.171 73.2145C151.415 72.9707 151.552 72.6402 151.552 72.2956C151.552 71.951 151.415 71.6205 151.171 71.3767C150.927 71.1329 150.597 70.9956 150.252 70.9951H88.879Z" fill="white"/>
<path d="M88.879 78.4392C88.5341 78.4397 88.2035 78.5769 87.9597 78.8208C87.716 79.0646 87.5791 79.3951 87.5791 79.7397C87.5791 80.0843 87.716 80.4148 87.9597 80.6586C88.2035 80.9025 88.5341 81.0397 88.879 81.0402H115.288C115.459 81.0405 115.628 81.007 115.787 80.9418C115.945 80.8765 116.089 80.7808 116.21 80.66C116.331 80.5392 116.427 80.3957 116.492 80.2378C116.558 80.0799 116.592 79.9107 116.592 79.7397C116.592 79.5688 116.558 79.3995 116.492 79.2416C116.427 79.0837 116.331 78.9402 116.21 78.8194C116.089 78.6987 115.945 78.6029 115.787 78.5377C115.628 78.4724 115.459 78.439 115.288 78.4392H88.879Z" fill="white"/>
<path d="M171.53 101.755C175.843 101.755 179.341 98.2611 179.341 93.9516C179.341 89.6422 175.843 86.1487 171.53 86.1487C167.216 86.1487 163.719 89.6422 163.719 93.9516C163.719 98.2611 167.216 101.755 171.53 101.755Z" fill="#3F3D56"/>
<path d="M170.879 97.4018L168.399 94.2176L169.841 93.0973L171.015 94.6051L174.981 90.4233L176.307 91.6783L170.879 97.4018Z" fill="white"/>
<path d="M158.639 13.7519L145.947 16.6535L140.584 6.54965L151.437 2.31689L158.639 13.7519Z" fill="#2F2E41"/>
<path d="M169.186 85.5132L173.943 81.1951L163.684 58.0788L154.72 47.0562L169.366 53.3887L170.89 69.5127L178.173 72.0158L177.229 51.8837C177.17 50.6282 176.751 49.416 176.022 48.3915C175.294 47.367 174.285 46.5733 173.118 46.1048L161.102 41.2833L158.951 32.2621L146.407 32.0828C142.509 38.8582 140.767 44.8214 143.58 49.0686L156.632 61.7848L169.186 85.5132Z" fill="#2F2E41"/>
<path d="M171.404 82.5547C171.404 82.5547 172.08 80.5361 173.14 81.0007C174.2 81.4654 177.168 83.8191 177.168 83.8191C177.168 83.8191 182.127 84.5198 179.021 86.315C175.915 88.1101 174.7 87.9984 174.601 87.7445C174.502 87.4906 173.696 86.927 173.696 86.927L172.525 87.676L170.547 87.8614C170.547 87.8614 167.958 83.4801 168.791 83.364C169.625 83.2479 171.447 83.4154 171.404 82.5547Z" fill="#2F2E41"/>
<path d="M174.532 70.1762C174.532 70.1762 176.594 69.6407 176.783 70.7815C176.971 71.9224 176.617 75.6919 176.617 75.6919C176.617 75.6919 178.735 80.2256 175.534 78.605C172.334 76.9845 171.764 75.9065 171.923 75.6849C172.082 75.4634 172.115 74.4813 172.115 74.4813L170.848 73.9092L169.613 72.3549C169.613 72.3549 171.876 67.7969 172.428 68.431C172.98 69.0651 173.834 70.6821 174.532 70.1762Z" fill="#2F2E41"/>
<path d="M147.918 12.808C150.457 12.808 152.515 10.7518 152.515 8.21528C152.515 5.67879 150.457 3.62256 147.918 3.62256C145.379 3.62256 143.32 5.67879 143.32 8.21528C143.32 10.7518 145.379 12.808 147.918 12.808Z" fill="#FFB9B9"/>
<path d="M147.384 23.3493L158.544 21.7398C156.878 18.7275 155.161 15.9822 152.852 16.2891C150.799 14.8533 150.68 12.5451 151.2 9.94934L145.613 11.4411C146.105 13.0411 145.915 14.4461 144.606 15.5309C146.435 18.1032 147.619 20.6996 147.384 23.3493Z" fill="#FFB9B9"/>
<path d="M146.54 33.1263C150.506 38.2842 154.573 40.3221 158.945 32.9491L159.306 29.6591C162.112 26.1243 161.29 23.0699 157.868 20.3598L156.218 16.4839L153.731 16.0834C154.059 16.4613 154.267 16.9277 154.329 17.4237C154.391 17.9197 154.305 18.423 154.081 18.87C153.857 19.317 153.506 19.6877 153.071 19.9353C152.637 20.1829 152.138 20.2962 151.639 20.261L150.74 20.1976C150.407 20.1741 150.082 20.0849 149.783 19.9353C149.484 19.7856 149.219 19.5784 149.001 19.3256L145.18 14.8961L143.571 15.3259C143.388 15.3746 143.226 15.479 143.106 15.6245C142.985 15.7699 142.914 15.9492 142.9 16.1374L142.378 23.5192C144.676 26.0617 145.998 29.3116 146.54 33.1263Z" fill="#E6E6E6"/>
<path d="M144.765 29.9838L135.982 28.2022L141.816 22.7799L139.595 18.7689L130.167 28.7873C130.005 28.9713 129.896 29.1962 129.853 29.4374C129.811 29.6787 129.835 29.9271 129.923 30.1556C130.012 30.384 130.162 30.5838 130.356 30.7332C130.55 30.8826 130.782 30.9759 131.026 31.0029L143.796 32.4156L144.32 34.7241C144.389 35.0312 144.532 35.317 144.736 35.5573C144.939 35.7977 145.198 35.9856 145.489 36.1051C145.781 36.2246 146.097 36.2722 146.411 36.2439C146.725 36.2156 147.027 36.1122 147.293 35.9425C147.539 35.7854 147.746 35.5756 147.901 35.3283C148.055 35.081 148.152 34.8024 148.185 34.5128C148.218 34.2233 148.186 33.93 148.092 33.6543C147.997 33.3786 147.842 33.1274 147.638 32.919L144.765 29.9838Z" fill="#FFB9B9"/>
<path d="M158.421 44.2452L157.255 47.2775C157.141 47.5738 157.091 47.8908 157.109 48.2076C157.127 48.5245 157.212 48.8339 157.358 49.1155C157.505 49.3971 157.709 49.6445 157.959 49.8413C158.208 50.038 158.496 50.1797 158.804 50.2569C159.165 50.3475 159.543 50.3469 159.904 50.2552C160.265 50.1636 160.597 49.9838 160.871 49.732C161.145 49.4802 161.352 49.1643 161.473 48.8127C161.594 48.4611 161.626 48.085 161.566 47.718L161.073 44.7182L162.694 32.7209L161.245 24.7955L157.94 25.8094L159.038 33.1868L158.421 44.2452Z" fill="#FFB9B9"/>
<path d="M157.174 26.6557L162.171 24.7087L159.385 18.6122C159.088 17.9609 158.618 17.4027 158.028 16.9975C157.437 16.5922 156.747 16.3553 156.031 16.312L154.75 16.2344L157.174 26.6557Z" fill="#E6E6E6"/>
<path d="M140.713 24.1682L146.041 22.3663L144.162 15.9818C144.101 15.7751 143.969 15.5969 143.788 15.479C143.608 15.3611 143.391 15.3113 143.177 15.3386C142.996 15.3616 142.826 15.4387 142.69 15.5596L137.247 20.3832C138.289 22.0956 139.397 22.1386 140.713 24.1682Z" fill="#E6E6E6"/>
<path d="M150.972 0.758896C150.972 0.758896 153.784 1.28723 154.434 4.7903C154.536 5.38106 154.554 5.98313 154.489 6.57901C154.424 7.25332 154.518 8.67753 155.984 10.3545C156.94 11.4422 157.832 12.5854 158.653 13.7782L155.715 14.5596L154.402 9.69692C153.766 7.33939 152.785 5.08832 151.492 3.01611L151.465 2.97285C151.465 2.97285 150.49 5.57746 147.874 5.93453L148.681 4.8739C148.681 4.8739 145.623 6.6395 143.891 7.17885C143.693 7.24044 143.516 7.35475 143.379 7.50945C143.241 7.66415 143.149 7.85339 143.111 8.05678C143.073 8.26017 143.091 8.47 143.164 8.66368C143.237 8.85735 143.361 9.02753 143.524 9.15587C143.536 9.16552 143.548 9.17518 143.561 9.18485C144.835 10.1516 147.435 12.4582 146.408 14.6896C145.381 16.9209 146.578 17.3278 146.578 17.3278L144.37 16.4886L143.359 16.0562L143.462 16.8027L138.528 16.906C138.528 16.906 137.195 16.8979 139.563 13.3428C139.563 13.3428 140.134 12.0097 139.665 10.9913C139.289 10.2201 139.101 9.37045 139.118 8.51257C139.267 4.92832 140.779 -2.36349 150.972 0.758896Z" fill="#2F2E41"/>
</g>
<defs>
<clipPath id="clip0">
<rect width="300" height="147.03" fill="white"/>
</clipPath>
</defs>
</svg>
